<svg xmlns="http://www.w3.org/2000/svg" xmlns:xlink="http://www.w3.org/1999/xlink" width="500" zoomAndPan="magnify" viewBox="0 0 375 374.999991" height="500" preserveAspectRatio="xMidYMid meet" version="1.0"><defs><g/><clipPath id="098046f91d"><path d="M 110.03125 111 L 222 111 L 222 221 L 110.03125 221 Z M 110.03125 111 " clip-rule="nonzero"/></clipPath><clipPath id="55a9009896"><path d="M 193 138 L 265 138 L 265 223.769531 L 193 223.769531 Z M 193 138 " clip-rule="nonzero"/></clipPath><clipPath id="2b22b8ffe9"><path d="M 164 91.769531 L 236 91.769531 L 236 156 L 164 156 Z M 164 91.769531 " clip-rule="nonzero"/></clipPath><clipPath id="a3e874c833"><path d="M 332.015625 277.808594 L 343.214844 277.808594 L 343.214844 283.203125 L 332.015625 283.203125 Z M 332.015625 277.808594 " clip-rule="nonzero"/></clipPath><clipPath id="2730d4bb3f"><path d="M 332.015625 260.445312 L 339.074219 260.445312 L 339.074219 283.203125 L 332.015625 283.203125 Z M 332.015625 260.445312 " clip-rule="nonzero"/></clipPath><clipPath id="d80cb56107"><path d="M 312.671875 277.808594 L 323.875 277.808594 L 323.875 283.203125 L 312.671875 283.203125 Z M 312.671875 277.808594 " clip-rule="nonzero"/></clipPath><clipPath id="dc58c72f47"><path d="M 316.816406 260.445312 L 323.875 260.445312 L 323.875 283.203125 L 316.816406 283.203125 Z M 316.816406 260.445312 " clip-rule="nonzero"/></clipPath><clipPath id="7b18ef2702"><path d="M 324 208.390625 L 332 208.390625 L 332 215 L 324 215 Z M 324 208.390625 " clip-rule="nonzero"/></clipPath><clipPath id="63a0f06bb6"><path d="M 347.167969 255.832031 L 357.902344 255.832031 L 357.902344 265.222656 L 347.167969 265.222656 Z M 347.167969 255.832031 " clip-rule="nonzero"/></clipPath><clipPath id="9006429d8c"><path d="M 297.46875 255 L 309 255 L 309 266 L 297.46875 266 Z M 297.46875 255 " clip-rule="nonzero"/></clipPath></defs><g clip-path="url(#098046f91d)"><path fill="#0846a8" d="M 165.71875 200.3125 C 146.6875 200.3125 131.257812 184.886719 131.257812 165.855469 C 131.257812 146.820312 146.6875 131.390625 165.71875 131.390625 C 184.753906 131.390625 200.179688 146.820312 200.179688 165.855469 C 200.179688 184.886719 184.753906 200.3125 165.71875 200.3125 Z M 220.949219 173.117188 C 221.257812 170.738281 221.417969 168.316406 221.417969 165.855469 C 221.417969 163.390625 221.257812 160.96875 220.949219 158.589844 L 211.996094 155.644531 C 211.332031 152.609375 210.375 149.6875 209.160156 146.902344 L 214.667969 139.257812 C 212.332031 134.96875 209.453125 131.023438 206.117188 127.507812 L 197.144531 130.394531 C 194.855469 128.359375 192.367188 126.550781 189.710938 124.984375 L 189.683594 115.558594 C 185.359375 113.5 180.730469 111.976562 175.882812 111.082031 L 170.316406 118.691406 C 168.804688 118.546875 167.269531 118.46875 165.71875 118.46875 C 164.167969 118.46875 162.636719 118.546875 161.125 118.691406 L 155.558594 111.082031 C 150.707031 111.976562 146.078125 113.5 141.757812 115.558594 L 141.726562 124.984375 C 139.074219 126.550781 136.585938 128.359375 134.296875 130.394531 L 125.320312 127.507812 C 121.988281 131.023438 119.105469 134.96875 116.769531 139.257812 L 122.28125 146.902344 C 121.0625 149.6875 120.105469 152.609375 119.441406 155.644531 L 110.492188 158.589844 C 110.183594 160.96875 110.019531 163.390625 110.019531 165.855469 C 110.019531 168.316406 110.183594 170.738281 110.492188 173.117188 L 119.441406 176.0625 C 120.105469 179.097656 121.0625 182.019531 122.28125 184.804688 L 116.769531 192.453125 C 119.105469 196.738281 121.988281 200.6875 125.320312 204.199219 L 134.296875 201.316406 C 136.585938 203.347656 139.074219 205.160156 141.726562 206.71875 L 141.757812 216.144531 C 146.078125 218.207031 150.707031 219.730469 155.558594 220.625 L 161.125 213.015625 C 162.636719 213.160156 164.167969 213.238281 165.71875 213.238281 C 167.269531 213.238281 168.804688 213.160156 170.316406 213.015625 L 175.882812 220.625 C 180.730469 219.730469 185.359375 218.207031 189.683594 216.144531 L 189.714844 206.71875 C 192.367188 205.160156 194.855469 203.347656 197.144531 201.316406 L 206.117188 204.199219 C 209.453125 200.6875 212.332031 196.738281 214.667969 192.453125 L 209.160156 184.804688 C 210.375 182.019531 211.332031 179.097656 211.996094 176.0625 L 220.949219 173.117188 " fill-opacity="1" fill-rule="nonzero"/></g><g clip-path="url(#55a9009896)"><path fill="#0846a8" d="M 264.578125 186.464844 C 264.820312 184.605469 264.949219 182.714844 264.949219 180.792969 C 264.949219 178.867188 264.820312 176.972656 264.578125 175.113281 L 257.589844 172.8125 C 257.066406 170.441406 256.320312 168.15625 255.371094 165.980469 L 259.675781 160.007812 C 257.851562 156.65625 255.597656 153.574219 252.992188 150.832031 L 245.980469 153.082031 C 244.191406 151.496094 242.246094 150.078125 240.175781 148.859375 L 240.152344 141.492188 C 237.746094 140.34375 235.214844 139.414062 232.585938 138.71875 L 232.433594 138.773438 C 232.210938 139.554688 231.957031 140.332031 231.679688 141.097656 L 235.589844 146.519531 L 234.414062 148.675781 C 233.121094 151.046875 231.597656 153.289062 229.871094 155.371094 C 241.46875 158.476562 250.007812 169.054688 250.007812 181.628906 C 250.007812 196.644531 237.835938 208.820312 222.820312 208.820312 C 218.214844 208.820312 213.882812 207.671875 210.082031 205.652344 C 209.707031 206.066406 209.332031 206.480469 208.949219 206.882812 L 207.261719 208.664062 L 198.011719 205.695312 C 196.605469 206.839844 195.132812 207.910156 193.609375 208.898438 L 193.605469 209.546875 L 196.875 208.496094 C 198.664062 210.085938 200.609375 211.5 202.679688 212.71875 L 202.703125 220.085938 C 206.082031 221.699219 209.699219 222.886719 213.488281 223.582031 L 217.835938 217.640625 C 219.015625 217.753906 220.214844 217.8125 221.425781 217.8125 C 222.640625 217.8125 223.839844 217.753906 225.019531 217.640625 L 229.367188 223.582031 C 233.15625 222.886719 236.773438 221.699219 240.152344 220.085938 L 240.175781 212.71875 C 242.246094 211.5 244.191406 210.085938 245.980469 208.496094 L 252.992188 210.75 C 255.597656 208.003906 257.851562 204.921875 259.675781 201.570312 L 255.371094 195.597656 C 256.320312 193.421875 257.066406 191.136719 257.589844 188.769531 L 264.578125 186.464844 " fill-opacity="1" fill-rule="nonzero"/></g><g clip-path="url(#2b22b8ffe9)"><path fill="#0846a8" d="M 235.230469 133.742188 C 235.441406 132.136719 235.546875 130.496094 235.546875 128.832031 C 235.546875 127.167969 235.441406 125.53125 235.230469 123.921875 L 229.179688 121.933594 C 228.730469 119.882812 228.085938 117.902344 227.261719 116.023438 L 230.984375 110.851562 C 229.410156 107.953125 227.460938 105.289062 225.207031 102.914062 L 219.140625 104.863281 C 217.589844 103.488281 215.910156 102.265625 214.117188 101.207031 L 214.097656 94.835938 C 211.175781 93.441406 208.046875 92.414062 204.765625 91.8125 L 201.003906 96.957031 C 199.984375 96.855469 198.945312 96.804688 197.898438 96.804688 C 196.851562 96.804688 195.816406 96.855469 194.792969 96.957031 L 191.03125 91.8125 C 187.753906 92.414062 184.625 93.441406 181.703125 94.835938 L 181.683594 101.207031 C 179.886719 102.265625 178.207031 103.488281 176.660156 104.863281 L 170.59375 102.914062 C 168.339844 105.289062 166.390625 107.953125 164.8125 110.851562 L 167.515625 114.601562 C 167.824219 114.613281 168.132812 114.625 168.445312 114.640625 L 174.179688 106.800781 L 176.589844 107.246094 C 180.023438 107.878906 183.394531 108.8125 186.65625 110.039062 C 190.046875 107.855469 194.082031 106.582031 198.417969 106.582031 C 210.425781 106.582031 220.164062 116.320312 220.164062 128.328125 C 220.164062 131.601562 219.4375 134.695312 218.144531 137.480469 L 219.269531 139.546875 L 213.59375 147.425781 C 214.246094 149.121094 214.808594 150.859375 215.277344 152.613281 L 224.257812 155.882812 C 226.511719 153.511719 229.410156 149.707031 230.984375 146.8125 L 227.261719 141.640625 C 228.085938 139.761719 228.730469 137.785156 229.179688 135.734375 L 235.230469 133.742188 " fill-opacity="1" fill-rule="nonzero"/></g><path fill="#0846a8" d="M 317.355469 234.589844 L 338.539062 234.589844 L 338.539062 221.453125 L 317.355469 221.453125 Z M 339.195312 235.902344 L 316.699219 235.902344 C 316.335938 235.902344 316.042969 235.609375 316.042969 235.246094 L 316.042969 220.796875 C 316.042969 220.433594 316.335938 220.140625 316.699219 220.140625 L 339.195312 220.140625 C 339.554688 220.140625 339.847656 220.433594 339.847656 220.796875 L 339.851562 235.246094 C 339.851562 235.609375 339.554688 235.902344 339.195312 235.902344 " fill-opacity="1" fill-rule="evenodd"/><path fill="#0846a8" d="M 342.617188 232.128906 L 339.195312 232.128906 C 338.832031 232.128906 338.539062 231.835938 338.539062 231.472656 C 338.539062 231.113281 338.832031 230.816406 339.195312 230.816406 L 341.960938 230.816406 L 341.960938 225.226562 L 339.195312 225.226562 C 338.832031 225.226562 338.539062 224.929688 338.539062 224.570312 C 338.539062 224.207031 338.832031 223.914062 339.195312 223.914062 L 342.617188 223.914062 C 342.976562 223.914062 343.269531 224.207031 343.269531 224.570312 L 343.269531 231.472656 C 343.269531 231.835938 342.976562 232.128906 342.617188 232.128906 " fill-opacity="1" fill-rule="evenodd"/><path fill="#0846a8" d="M 324.859375 239.378906 C 324.496094 239.378906 324.203125 239.085938 324.203125 238.722656 L 324.203125 235.246094 C 324.203125 234.886719 324.496094 234.589844 324.859375 234.589844 C 325.222656 234.589844 325.515625 234.886719 325.515625 235.246094 L 325.515625 238.722656 C 325.515625 239.085938 325.21875 239.378906 324.859375 239.378906 Z M 331.035156 239.378906 C 330.671875 239.378906 330.378906 239.085938 330.378906 238.722656 L 330.378906 235.246094 C 330.378906 234.886719 330.671875 234.589844 331.035156 234.589844 C 331.394531 234.589844 331.6875 234.886719 331.6875 235.246094 L 331.6875 238.722656 C 331.6875 239.085938 331.394531 239.378906 331.035156 239.378906 " fill-opacity="1" fill-rule="evenodd"/><path fill="#0846a8" d="M 333.925781 242.355469 C 333.566406 242.355469 333.269531 242.0625 333.269531 241.699219 L 333.269531 239.378906 L 322.617188 239.378906 L 322.617188 241.699219 C 322.617188 242.0625 322.328125 242.355469 321.964844 242.355469 C 321.601562 242.355469 321.308594 242.0625 321.308594 241.699219 L 321.308594 238.722656 C 321.308594 238.359375 321.601562 238.066406 321.964844 238.066406 L 333.925781 238.066406 C 334.289062 238.066406 334.582031 238.359375 334.582031 238.722656 L 334.582031 241.699219 C 334.582031 242.0625 334.289062 242.355469 333.925781 242.355469 " fill-opacity="1" fill-rule="evenodd"/><path fill="#0846a8" d="M 312.539062 260.449219 L 343.351562 260.449219 L 343.351562 242.359375 L 312.539062 242.359375 Z M 344.011719 261.765625 L 311.882812 261.765625 C 311.515625 261.765625 311.222656 261.472656 311.222656 261.109375 L 311.222656 241.699219 C 311.222656 241.335938 311.515625 241.042969 311.882812 241.042969 L 344.011719 241.042969 C 344.375 241.042969 344.667969 241.335938 344.667969 241.699219 L 344.667969 261.109375 C 344.667969 261.472656 344.375 261.765625 344.011719 261.765625 " fill-opacity="1" fill-rule="evenodd"/><path fill="#0846a8" d="M 321.78125 226.347656 C 320.859375 226.347656 320.109375 227.097656 320.109375 228.023438 C 320.109375 228.945312 320.859375 229.695312 321.78125 229.695312 C 322.707031 229.695312 323.457031 228.945312 323.457031 228.023438 C 323.457031 227.097656 322.707031 226.347656 321.78125 226.347656 Z M 321.78125 231.007812 C 320.136719 231.007812 318.796875 229.667969 318.796875 228.023438 C 318.796875 226.375 320.136719 225.035156 321.78125 225.035156 C 323.429688 225.035156 324.769531 226.375 324.769531 228.023438 C 324.769531 229.667969 323.429688 231.007812 321.78125 231.007812 " fill-opacity="1" fill-rule="evenodd"/><path fill="#0846a8" d="M 334.109375 226.347656 C 333.183594 226.347656 332.433594 227.097656 332.433594 228.023438 C 332.433594 228.945312 333.183594 229.695312 334.109375 229.695312 C 335.03125 229.695312 335.785156 228.945312 335.785156 228.023438 C 335.785156 227.097656 335.03125 226.347656 334.109375 226.347656 Z M 334.109375 231.007812 C 332.460938 231.007812 331.121094 229.667969 331.121094 228.023438 C 331.121094 226.375 332.460938 225.035156 334.109375 225.035156 C 335.753906 225.035156 337.09375 226.375 337.09375 228.023438 C 337.097656 229.667969 335.753906 231.007812 334.109375 231.007812 " fill-opacity="1" fill-rule="evenodd"/><path fill="#0846a8" d="M 316.832031 254.269531 L 319.011719 254.269531 L 319.011719 248.539062 L 316.832031 248.539062 Z M 319.671875 255.589844 L 316.175781 255.589844 C 315.8125 255.589844 315.515625 255.292969 315.515625 254.929688 L 315.515625 247.878906 C 315.515625 247.515625 315.808594 247.21875 316.171875 247.21875 L 319.671875 247.21875 C 320.035156 247.21875 320.328125 247.515625 320.328125 247.878906 L 320.332031 254.929688 C 320.332031 255.292969 320.035156 255.589844 319.671875 255.589844 " fill-opacity="1" fill-rule="evenodd"/><path fill="#0846a8" d="M 333.539062 250.253906 L 322.46875 250.253906 C 322.105469 250.253906 321.8125 249.960938 321.8125 249.597656 C 321.8125 249.234375 322.105469 248.941406 322.464844 248.941406 L 333.539062 248.941406 C 333.902344 248.941406 334.195312 249.234375 334.195312 249.597656 C 334.195312 249.960938 333.902344 250.253906 333.539062 250.253906 " fill-opacity="1" fill-rule="evenodd"/><path fill="#0846a8" d="M 333.539062 253.867188 L 322.46875 253.867188 C 322.105469 253.867188 321.8125 253.574219 321.8125 253.210938 C 321.8125 252.847656 322.105469 252.554688 322.464844 252.554688 L 333.539062 252.554688 C 333.902344 252.554688 334.195312 252.847656 334.195312 253.210938 C 334.195312 253.574219 333.902344 253.867188 333.539062 253.867188 " fill-opacity="1" fill-rule="evenodd"/><path fill="#0846a8" d="M 336.882812 254.269531 L 339.058594 254.269531 L 339.058594 248.539062 L 336.882812 248.539062 Z M 339.71875 255.589844 L 336.222656 255.589844 C 335.855469 255.589844 335.558594 255.292969 335.558594 254.929688 L 335.558594 247.878906 C 335.558594 247.515625 335.855469 247.21875 336.222656 247.21875 L 339.71875 247.21875 C 340.082031 247.21875 340.378906 247.515625 340.378906 247.878906 L 340.378906 254.929688 C 340.378906 255.292969 340.082031 255.589844 339.71875 255.589844 " fill-opacity="1" fill-rule="evenodd"/><path fill="#0846a8" d="M 327.945312 221.453125 C 327.582031 221.453125 327.289062 221.15625 327.289062 220.796875 L 327.289062 214.34375 C 327.289062 213.980469 327.582031 213.6875 327.945312 213.6875 C 328.308594 213.6875 328.601562 213.980469 328.601562 214.34375 L 328.601562 220.796875 C 328.601562 221.15625 328.308594 221.453125 327.945312 221.453125 " fill-opacity="1" fill-rule="evenodd"/><g clip-path="url(#a3e874c833)"><path fill="#0846a8" d="M 333.410156 281.886719 L 341.824219 281.886719 C 341.476562 280.328125 339.722656 279.144531 337.617188 279.144531 C 336.710938 279.144531 335.847656 279.363281 335.117188 279.773438 C 334.210938 280.285156 333.601562 281.050781 333.410156 281.886719 Z M 342.542969 283.203125 L 332.691406 283.203125 C 332.332031 283.203125 332.042969 282.917969 332.03125 282.5625 C 332.03125 282.523438 332.03125 282.488281 332.03125 282.453125 C 332.03125 280.917969 332.941406 279.488281 334.46875 278.628906 C 335.398438 278.105469 336.484375 277.828125 337.617188 277.828125 C 340.695312 277.828125 343.199219 279.902344 343.199219 282.453125 C 343.203125 282.488281 343.199219 282.523438 343.199219 282.5625 C 343.1875 282.917969 342.898438 283.203125 342.542969 283.203125 " fill-opacity="1" fill-rule="evenodd"/></g><g clip-path="url(#2730d4bb3f)"><path fill="#0846a8" d="M 338.398438 279.191406 C 338.039062 279.191406 337.742188 278.898438 337.742188 278.535156 L 337.742188 261.109375 C 337.742188 260.746094 338.035156 260.453125 338.398438 260.453125 C 338.761719 260.453125 339.054688 260.746094 339.054688 261.109375 L 339.054688 278.535156 C 339.054688 278.898438 338.761719 279.191406 338.398438 279.191406 Z M 332.691406 283.199219 C 332.335938 283.199219 332.046875 282.917969 332.035156 282.5625 C 332.035156 282.53125 332.03125 282.5 332.03125 282.464844 C 332.03125 282.464844 332.03125 282.460938 332.03125 282.457031 C 332.03125 282.453125 332.03125 282.453125 332.03125 282.453125 L 332.03125 261.109375 C 332.03125 260.746094 332.328125 260.453125 332.6875 260.453125 C 333.050781 260.453125 333.34375 260.746094 333.34375 261.109375 L 333.34375 282.453125 L 333.347656 282.53125 C 333.355469 282.890625 333.066406 283.191406 332.707031 283.199219 C 332.699219 283.199219 332.695312 283.199219 332.691406 283.199219 " fill-opacity="1" fill-rule="evenodd"/></g><g clip-path="url(#d80cb56107)"><path fill="#0846a8" d="M 314.070312 281.886719 L 322.480469 281.886719 C 322.289062 281.050781 321.679688 280.285156 320.773438 279.773438 C 320.042969 279.363281 319.179688 279.144531 318.273438 279.144531 C 316.171875 279.144531 314.417969 280.328125 314.070312 281.886719 Z M 323.199219 283.203125 L 313.351562 283.203125 C 312.996094 283.203125 312.703125 282.917969 312.691406 282.566406 C 312.691406 282.527344 312.691406 282.488281 312.691406 282.453125 C 312.691406 279.902344 315.195312 277.828125 318.273438 277.828125 C 319.402344 277.828125 320.492188 278.105469 321.421875 278.628906 C 322.949219 279.488281 323.859375 280.917969 323.859375 282.453125 C 323.859375 282.488281 323.859375 282.523438 323.855469 282.5625 C 323.847656 282.917969 323.554688 283.203125 323.199219 283.203125 " fill-opacity="1" fill-rule="evenodd"/></g><g clip-path="url(#dc58c72f47)"><path fill="#0846a8" d="M 317.492188 279.191406 C 317.128906 279.191406 316.835938 278.898438 316.835938 278.535156 L 316.835938 261.109375 C 316.835938 260.746094 317.128906 260.453125 317.492188 260.453125 C 317.851562 260.453125 318.148438 260.746094 318.148438 261.109375 L 318.148438 278.535156 C 318.148438 278.898438 317.851562 279.191406 317.492188 279.191406 Z M 323.203125 283.199219 C 323.023438 283.199219 322.855469 283.128906 322.730469 283 C 322.605469 282.875 322.539062 282.699219 322.546875 282.523438 L 322.546875 282.457031 C 322.546875 282.453125 322.546875 282.453125 322.546875 282.453125 L 322.546875 261.109375 C 322.546875 260.746094 322.839844 260.453125 323.203125 260.453125 C 323.5625 260.453125 323.855469 260.746094 323.855469 261.109375 L 323.855469 282.453125 C 323.855469 282.453125 323.855469 282.453125 323.855469 282.457031 C 323.855469 282.457031 323.855469 282.460938 323.855469 282.460938 L 323.855469 282.542969 C 323.855469 282.90625 323.5625 283.199219 323.203125 283.199219 " fill-opacity="1" fill-rule="evenodd"/></g><path fill="#0846a8" d="M 316.699219 232.128906 L 313.277344 232.128906 C 312.914062 232.128906 312.621094 231.835938 312.621094 231.472656 L 312.621094 224.570312 C 312.621094 224.207031 312.914062 223.914062 313.277344 223.914062 L 316.699219 223.914062 C 317.058594 223.914062 317.355469 224.207031 317.355469 224.570312 C 317.355469 224.929688 317.058594 225.226562 316.699219 225.226562 L 313.933594 225.226562 L 313.933594 230.816406 L 316.699219 230.816406 C 317.058594 230.816406 317.355469 231.113281 317.355469 231.472656 C 317.355469 231.835938 317.058594 232.128906 316.699219 232.128906 " fill-opacity="1" fill-rule="evenodd"/><g clip-path="url(#7b18ef2702)"><path fill="#0846a8" d="M 327.945312 209.730469 C 326.851562 209.730469 325.96875 210.617188 325.96875 211.710938 C 325.96875 212.800781 326.851562 213.6875 327.945312 213.6875 C 329.035156 213.6875 329.925781 212.800781 329.925781 211.710938 C 329.925781 210.617188 329.035156 209.730469 327.945312 209.730469 Z M 327.945312 215 C 326.132812 215 324.65625 213.523438 324.65625 211.710938 C 324.65625 209.894531 326.132812 208.417969 327.945312 208.417969 C 329.761719 208.417969 331.238281 209.894531 331.238281 211.710938 C 331.238281 213.523438 329.761719 215 327.945312 215 " fill-opacity="1" fill-rule="evenodd"/></g><path fill="#0846a8" d="M 352.542969 246.46875 L 344.011719 246.46875 C 343.648438 246.46875 343.355469 246.175781 343.355469 245.8125 C 343.355469 245.453125 343.648438 245.160156 344.011719 245.160156 L 352.542969 245.160156 C 352.902344 245.160156 353.195312 245.453125 353.195312 245.8125 C 353.195312 246.179688 352.902344 246.46875 352.542969 246.46875 " fill-opacity="1" fill-rule="evenodd"/><path fill="#0846a8" d="M 352.542969 257.164062 C 352.179688 257.164062 351.886719 256.871094 351.886719 256.507812 L 351.886719 245.8125 C 351.886719 245.453125 352.179688 245.160156 352.542969 245.160156 C 352.902344 245.160156 353.195312 245.453125 353.195312 245.8125 L 353.195312 256.507812 C 353.195312 256.871094 352.902344 257.164062 352.542969 257.164062 " fill-opacity="1" fill-rule="evenodd"/><g clip-path="url(#63a0f06bb6)"><path fill="#0846a8" d="M 355.871094 265.195312 C 355.703125 265.195312 355.535156 265.132812 355.40625 265.003906 C 355.148438 264.75 355.148438 264.335938 355.40625 264.078125 C 356.984375 262.5 356.984375 259.929688 355.40625 258.351562 C 354.640625 257.585938 353.625 257.164062 352.542969 257.164062 C 351.460938 257.164062 350.445312 257.585938 349.679688 258.351562 C 348.097656 259.929688 348.097656 262.5 349.679688 264.078125 C 349.933594 264.335938 349.933594 264.75 349.679688 265.003906 C 349.421875 265.261719 349.007812 265.261719 348.75 265.003906 C 346.660156 262.914062 346.660156 259.515625 348.75 257.421875 C 349.765625 256.410156 351.109375 255.851562 352.542969 255.851562 C 353.972656 255.851562 355.320312 256.410156 356.332031 257.421875 C 358.425781 259.515625 358.425781 262.914062 356.332031 265.003906 C 356.207031 265.132812 356.039062 265.195312 355.871094 265.195312 " fill-opacity="1" fill-rule="evenodd"/></g><path fill="#0846a8" d="M 303.347656 246.46875 C 302.988281 246.46875 302.691406 246.179688 302.691406 245.8125 C 302.691406 245.453125 302.988281 245.15625 303.347656 245.15625 L 311.882812 245.15625 C 312.242188 245.15625 312.535156 245.453125 312.535156 245.8125 C 312.539062 246.175781 312.242188 246.46875 311.882812 246.46875 L 303.347656 246.46875 " fill-opacity="1" fill-rule="evenodd"/><path fill="#0846a8" d="M 303.347656 257.164062 C 302.988281 257.164062 302.691406 256.871094 302.691406 256.507812 L 302.691406 245.8125 C 302.691406 245.453125 302.988281 245.15625 303.347656 245.15625 C 303.710938 245.15625 304.003906 245.453125 304.003906 245.8125 L 304.003906 256.507812 C 304.003906 256.871094 303.710938 257.164062 303.347656 257.164062 " fill-opacity="1" fill-rule="evenodd"/><g clip-path="url(#9006429d8c)"><path fill="#0846a8" d="M 306.675781 265.195312 C 306.507812 265.195312 306.339844 265.132812 306.214844 265.003906 C 305.957031 264.75 305.957031 264.335938 306.214844 264.078125 C 307.792969 262.5 307.792969 259.929688 306.214844 258.351562 C 304.632812 256.769531 302.0625 256.769531 300.484375 258.351562 C 298.90625 259.929688 298.90625 262.5 300.484375 264.078125 C 300.742188 264.335938 300.742188 264.75 300.484375 265.003906 C 300.230469 265.261719 299.8125 265.261719 299.558594 265.003906 C 297.46875 262.914062 297.46875 259.515625 299.558594 257.421875 C 301.648438 255.332031 305.050781 255.332031 307.140625 257.421875 C 309.230469 259.515625 309.230469 262.914062 307.140625 265.003906 C 307.011719 265.132812 306.84375 265.195312 306.675781 265.195312 " fill-opacity="1" fill-rule="evenodd"/></g><g fill="#0846a8" fill-opacity="1"><g transform="translate(79.083038, 262.470979)"><g><path d="M 12.34375 -7.546875 L 10.515625 -12.953125 C 10.378906 -13.296875 10.234375 -13.695312 10.078125 -14.15625 C 9.921875 -14.625 9.769531 -15.128906 9.625 -15.671875 C 9.488281 -15.117188 9.34375 -14.609375 9.1875 -14.140625 C 9.03125 -13.671875 8.882812 -13.265625 8.75 -12.921875 L 6.9375 -7.546875 Z M 19.609375 0 L 16.0625 0 C 15.664062 0 15.34375 -0.09375 15.09375 -0.28125 C 14.851562 -0.46875 14.671875 -0.703125 14.546875 -0.984375 L 13.390625 -4.4375 L 5.875 -4.4375 L 4.71875 -0.984375 C 4.613281 -0.734375 4.429688 -0.503906 4.171875 -0.296875 C 3.921875 -0.0976562 3.601562 0 3.21875 0 L -0.359375 0 L 7.28125 -19.734375 L 11.96875 -19.734375 Z M 19.609375 0 "/></g></g></g><g fill="#0846a8" fill-opacity="1"><g transform="translate(101.16517, 262.470979)"><g><path d="M 10.140625 -3.609375 C 10.753906 -3.609375 11.300781 -3.710938 11.78125 -3.921875 C 12.269531 -4.128906 12.679688 -4.421875 13.015625 -4.796875 C 13.347656 -5.171875 13.601562 -5.628906 13.78125 -6.171875 C 13.957031 -6.722656 14.046875 -7.347656 14.046875 -8.046875 L 14.046875 -19.734375 L 18.625 -19.734375 L 18.625 -8.046875 C 18.625 -6.835938 18.425781 -5.726562 18.03125 -4.71875 C 17.644531 -3.707031 17.082031 -2.832031 16.34375 -2.09375 C 15.613281 -1.363281 14.722656 -0.796875 13.671875 -0.390625 C 12.628906 0.015625 11.453125 0.21875 10.140625 0.21875 C 8.828125 0.21875 7.644531 0.015625 6.59375 -0.390625 C 5.550781 -0.796875 4.660156 -1.363281 3.921875 -2.09375 C 3.191406 -2.832031 2.632812 -3.707031 2.25 -4.71875 C 1.863281 -5.726562 1.671875 -6.835938 1.671875 -8.046875 L 1.671875 -19.734375 L 6.25 -19.734375 L 6.25 -8.0625 C 6.25 -7.363281 6.335938 -6.738281 6.515625 -6.1875 C 6.691406 -5.644531 6.945312 -5.179688 7.28125 -4.796875 C 7.613281 -4.421875 8.019531 -4.128906 8.5 -3.921875 C 8.976562 -3.710938 9.523438 -3.609375 10.140625 -3.609375 Z M 10.140625 -3.609375 "/></g></g></g><g fill="#0846a8" fill-opacity="1"><g transform="translate(124.276869, 262.470979)"><g><path d="M 16.09375 -16.109375 L 10.546875 -16.109375 L 10.546875 0 L 5.953125 0 L 5.953125 -16.109375 L 0.40625 -16.109375 L 0.40625 -19.734375 L 16.09375 -19.734375 Z M 16.09375 -16.109375 "/></g></g></g><g fill="#0846a8" fill-opacity="1"><g transform="translate(143.595428, 262.470979)"><g><path d="M 21.28125 -9.875 C 21.28125 -8.445312 21.035156 -7.117188 20.546875 -5.890625 C 20.054688 -4.660156 19.363281 -3.59375 18.46875 -2.6875 C 17.570312 -1.78125 16.492188 -1.066406 15.234375 -0.546875 C 13.972656 -0.0351562 12.578125 0.21875 11.046875 0.21875 C 9.503906 0.21875 8.097656 -0.0351562 6.828125 -0.546875 C 5.566406 -1.066406 4.488281 -1.78125 3.59375 -2.6875 C 2.695312 -3.59375 2 -4.660156 1.5 -5.890625 C 1.007812 -7.117188 0.765625 -8.445312 0.765625 -9.875 C 0.765625 -11.300781 1.007812 -12.628906 1.5 -13.859375 C 2 -15.085938 2.695312 -16.148438 3.59375 -17.046875 C 4.488281 -17.953125 5.566406 -18.660156 6.828125 -19.171875 C 8.097656 -19.691406 9.503906 -19.953125 11.046875 -19.953125 C 12.578125 -19.953125 13.972656 -19.691406 15.234375 -19.171875 C 16.492188 -18.648438 17.570312 -17.9375 18.46875 -17.03125 C 19.363281 -16.132812 20.054688 -15.070312 20.546875 -13.84375 C 21.035156 -12.613281 21.28125 -11.289062 21.28125 -9.875 Z M 16.59375 -9.875 C 16.59375 -10.851562 16.46875 -11.734375 16.21875 -12.515625 C 15.96875 -13.296875 15.601562 -13.957031 15.125 -14.5 C 14.644531 -15.039062 14.0625 -15.453125 13.375 -15.734375 C 12.695312 -16.023438 11.921875 -16.171875 11.046875 -16.171875 C 10.160156 -16.171875 9.367188 -16.023438 8.671875 -15.734375 C 7.984375 -15.453125 7.398438 -15.039062 6.921875 -14.5 C 6.453125 -13.957031 6.085938 -13.296875 5.828125 -12.515625 C 5.578125 -11.734375 5.453125 -10.851562 5.453125 -9.875 C 5.453125 -8.894531 5.578125 -8.015625 5.828125 -7.234375 C 6.085938 -6.453125 6.453125 -5.789062 6.921875 -5.25 C 7.398438 -4.707031 7.984375 -4.289062 8.671875 -4 C 9.367188 -3.71875 10.160156 -3.578125 11.046875 -3.578125 C 11.921875 -3.578125 12.695312 -3.71875 13.375 -4 C 14.0625 -4.289062 14.644531 -4.707031 15.125 -5.25 C 15.601562 -5.789062 15.96875 -6.453125 16.21875 -7.234375 C 16.46875 -8.015625 16.59375 -8.894531 16.59375 -9.875 Z M 16.59375 -9.875 "/></g></g></g><g fill="#0846a8" fill-opacity="1"><g transform="translate(168.481771, 262.470979)"><g><path d="M 24.09375 -19.734375 L 24.09375 0 L 20.0625 0 L 20.0625 -11.359375 C 20.0625 -11.617188 20.066406 -11.898438 20.078125 -12.203125 C 20.097656 -12.515625 20.125 -12.828125 20.15625 -13.140625 L 14.921875 -3 C 14.753906 -2.675781 14.53125 -2.429688 14.25 -2.265625 C 13.976562 -2.109375 13.664062 -2.03125 13.3125 -2.03125 L 12.6875 -2.03125 C 12.34375 -2.03125 12.03125 -2.109375 11.75 -2.265625 C 11.476562 -2.429688 11.257812 -2.675781 11.09375 -3 L 5.859375 -13.171875 C 5.878906 -12.847656 5.898438 -12.53125 5.921875 -12.21875 C 5.941406 -11.90625 5.953125 -11.617188 5.953125 -11.359375 L 5.953125 0 L 1.90625 0 L 1.90625 -19.734375 L 5.40625 -19.734375 C 5.601562 -19.734375 5.773438 -19.726562 5.921875 -19.71875 C 6.078125 -19.707031 6.210938 -19.679688 6.328125 -19.640625 C 6.441406 -19.597656 6.546875 -19.53125 6.640625 -19.4375 C 6.734375 -19.34375 6.828125 -19.207031 6.921875 -19.03125 L 12 -9.015625 C 12.1875 -8.671875 12.363281 -8.3125 12.53125 -7.9375 C 12.695312 -7.570312 12.851562 -7.195312 13 -6.8125 C 13.15625 -7.207031 13.316406 -7.59375 13.484375 -7.96875 C 13.648438 -8.351562 13.828125 -8.71875 14.015625 -9.0625 L 19.09375 -19.03125 C 19.175781 -19.207031 19.265625 -19.34375 19.359375 -19.4375 C 19.453125 -19.53125 19.554688 -19.597656 19.671875 -19.640625 C 19.796875 -19.679688 19.929688 -19.707031 20.078125 -19.71875 C 20.234375 -19.726562 20.410156 -19.734375 20.609375 -19.734375 Z M 24.09375 -19.734375 "/></g></g></g><g fill="#0846a8" fill-opacity="1"><g transform="translate(197.310272, 262.470979)"><g><path d="M 12.34375 -7.546875 L 10.515625 -12.953125 C 10.378906 -13.296875 10.234375 -13.695312 10.078125 -14.15625 C 9.921875 -14.625 9.769531 -15.128906 9.625 -15.671875 C 9.488281 -15.117188 9.34375 -14.609375 9.1875 -14.140625 C 9.03125 -13.671875 8.882812 -13.265625 8.75 -12.921875 L 6.9375 -7.546875 Z M 19.609375 0 L 16.0625 0 C 15.664062 0 15.34375 -0.09375 15.09375 -0.28125 C 14.851562 -0.46875 14.671875 -0.703125 14.546875 -0.984375 L 13.390625 -4.4375 L 5.875 -4.4375 L 4.71875 -0.984375 C 4.613281 -0.734375 4.429688 -0.503906 4.171875 -0.296875 C 3.921875 -0.0976562 3.601562 0 3.21875 0 L -0.359375 0 L 7.28125 -19.734375 L 11.96875 -19.734375 Z M 19.609375 0 "/></g></g></g><g fill="#0846a8" fill-opacity="1"><g transform="translate(219.392401, 262.470979)"><g><path d="M 16.09375 -16.109375 L 10.546875 -16.109375 L 10.546875 0 L 5.953125 0 L 5.953125 -16.109375 L 0.40625 -16.109375 L 0.40625 -19.734375 L 16.09375 -19.734375 Z M 16.09375 -16.109375 "/></g></g></g><g fill="#0846a8" fill-opacity="1"><g transform="translate(238.710954, 262.470979)"><g><path d="M 6.515625 0 L 1.90625 0 L 1.90625 -19.734375 L 6.515625 -19.734375 Z M 6.515625 0 "/></g></g></g><g fill="#0846a8" fill-opacity="1"><g transform="translate(249.955529, 262.470979)"><g><path d="M 21.28125 -9.875 C 21.28125 -8.445312 21.035156 -7.117188 20.546875 -5.890625 C 20.054688 -4.660156 19.363281 -3.59375 18.46875 -2.6875 C 17.570312 -1.78125 16.492188 -1.066406 15.234375 -0.546875 C 13.972656 -0.0351562 12.578125 0.21875 11.046875 0.21875 C 9.503906 0.21875 8.097656 -0.0351562 6.828125 -0.546875 C 5.566406 -1.066406 4.488281 -1.78125 3.59375 -2.6875 C 2.695312 -3.59375 2 -4.660156 1.5 -5.890625 C 1.007812 -7.117188 0.765625 -8.445312 0.765625 -9.875 C 0.765625 -11.300781 1.007812 -12.628906 1.5 -13.859375 C 2 -15.085938 2.695312 -16.148438 3.59375 -17.046875 C 4.488281 -17.953125 5.566406 -18.660156 6.828125 -19.171875 C 8.097656 -19.691406 9.503906 -19.953125 11.046875 -19.953125 C 12.578125 -19.953125 13.972656 -19.691406 15.234375 -19.171875 C 16.492188 -18.648438 17.570312 -17.9375 18.46875 -17.03125 C 19.363281 -16.132812 20.054688 -15.070312 20.546875 -13.84375 C 21.035156 -12.613281 21.28125 -11.289062 21.28125 -9.875 Z M 16.59375 -9.875 C 16.59375 -10.851562 16.46875 -11.734375 16.21875 -12.515625 C 15.96875 -13.296875 15.601562 -13.957031 15.125 -14.5 C 14.644531 -15.039062 14.0625 -15.453125 13.375 -15.734375 C 12.695312 -16.023438 11.921875 -16.171875 11.046875 -16.171875 C 10.160156 -16.171875 9.367188 -16.023438 8.671875 -15.734375 C 7.984375 -15.453125 7.398438 -15.039062 6.921875 -14.5 C 6.453125 -13.957031 6.085938 -13.296875 5.828125 -12.515625 C 5.578125 -11.734375 5.453125 -10.851562 5.453125 -9.875 C 5.453125 -8.894531 5.578125 -8.015625 5.828125 -7.234375 C 6.085938 -6.453125 6.453125 -5.789062 6.921875 -5.25 C 7.398438 -4.707031 7.984375 -4.289062 8.671875 -4 C 9.367188 -3.71875 10.160156 -3.578125 11.046875 -3.578125 C 11.921875 -3.578125 12.695312 -3.71875 13.375 -4 C 14.0625 -4.289062 14.644531 -4.707031 15.125 -5.25 C 15.601562 -5.789062 15.96875 -6.453125 16.21875 -7.234375 C 16.46875 -8.015625 16.59375 -8.894531 16.59375 -9.875 Z M 16.59375 -9.875 "/></g></g></g><g fill="#0846a8" fill-opacity="1"><g transform="translate(274.841883, 262.470979)"><g><path d="M 19.140625 -19.734375 L 19.140625 0 L 16.75 0 C 16.40625 0 16.113281 -0.0546875 15.875 -0.171875 C 15.632812 -0.285156 15.394531 -0.484375 15.15625 -0.765625 L 5.859375 -12.53125 C 5.890625 -12.175781 5.910156 -11.832031 5.921875 -11.5 C 5.941406 -11.175781 5.953125 -10.867188 5.953125 -10.578125 L 5.953125 0 L 1.90625 0 L 1.90625 -19.734375 L 4.328125 -19.734375 C 4.523438 -19.734375 4.691406 -19.722656 4.828125 -19.703125 C 4.960938 -19.691406 5.082031 -19.660156 5.1875 -19.609375 C 5.289062 -19.554688 5.394531 -19.484375 5.5 -19.390625 C 5.601562 -19.304688 5.71875 -19.1875 5.84375 -19.03125 L 15.234375 -7.1875 C 15.179688 -7.5625 15.144531 -7.925781 15.125 -8.28125 C 15.113281 -8.632812 15.109375 -8.972656 15.109375 -9.296875 L 15.109375 -19.734375 Z M 19.140625 -19.734375 "/></g></g></g><g fill="#0846a8" fill-opacity="1"><g transform="translate(125.267559, 279.434221)"><g><path d="M 11.359375 -5.28125 C 11.359375 -4.507812 11.226562 -3.796875 10.96875 -3.140625 C 10.707031 -2.484375 10.335938 -1.910156 9.859375 -1.421875 C 9.378906 -0.941406 8.800781 -0.566406 8.125 -0.296875 C 7.457031 -0.0234375 6.710938 0.109375 5.890625 0.109375 C 5.078125 0.109375 4.332031 -0.0234375 3.65625 -0.296875 C 2.976562 -0.566406 2.398438 -0.941406 1.921875 -1.421875 C 1.441406 -1.910156 1.066406 -2.484375 0.796875 -3.140625 C 0.535156 -3.796875 0.40625 -4.507812 0.40625 -5.28125 C 0.40625 -6.039062 0.535156 -6.75 0.796875 -7.40625 C 1.066406 -8.0625 1.441406 -8.628906 1.921875 -9.109375 C 2.398438 -9.585938 2.976562 -9.960938 3.65625 -10.234375 C 4.332031 -10.515625 5.078125 -10.65625 5.890625 -10.65625 C 6.710938 -10.65625 7.457031 -10.515625 8.125 -10.234375 C 8.800781 -9.960938 9.378906 -9.582031 9.859375 -9.09375 C 10.335938 -8.613281 10.707031 -8.046875 10.96875 -7.390625 C 11.226562 -6.734375 11.359375 -6.03125 11.359375 -5.28125 Z M 8.859375 -5.28125 C 8.859375 -5.800781 8.789062 -6.269531 8.65625 -6.6875 C 8.519531 -7.101562 8.328125 -7.453125 8.078125 -7.734375 C 7.828125 -8.023438 7.515625 -8.25 7.140625 -8.40625 C 6.773438 -8.5625 6.359375 -8.640625 5.890625 -8.640625 C 5.421875 -8.640625 5 -8.5625 4.625 -8.40625 C 4.257812 -8.25 3.953125 -8.023438 3.703125 -7.734375 C 3.453125 -7.453125 3.257812 -7.101562 3.125 -6.6875 C 2.988281 -6.269531 2.921875 -5.800781 2.921875 -5.28125 C 2.921875 -4.75 2.988281 -4.273438 3.125 -3.859375 C 3.257812 -3.441406 3.453125 -3.085938 3.703125 -2.796875 C 3.953125 -2.503906 4.257812 -2.28125 4.625 -2.125 C 5 -1.976562 5.421875 -1.90625 5.890625 -1.90625 C 6.359375 -1.90625 6.773438 -1.976562 7.140625 -2.125 C 7.515625 -2.28125 7.828125 -2.503906 8.078125 -2.796875 C 8.328125 -3.085938 8.519531 -3.441406 8.65625 -3.859375 C 8.789062 -4.273438 8.859375 -4.75 8.859375 -5.28125 Z M 8.859375 -5.28125 "/></g></g></g><g fill="#0846a8" fill-opacity="1"><g transform="translate(141.094382, 279.434221)"><g><path d="M 10.21875 -10.546875 L 10.21875 0 L 8.953125 0 C 8.765625 0 8.601562 -0.03125 8.46875 -0.09375 C 8.34375 -0.15625 8.21875 -0.257812 8.09375 -0.40625 L 3.125 -6.6875 C 3.144531 -6.5 3.15625 -6.316406 3.15625 -6.140625 C 3.164062 -5.960938 3.171875 -5.800781 3.171875 -5.65625 L 3.171875 0 L 1.015625 0 L 1.015625 -10.546875 L 2.3125 -10.546875 C 2.414062 -10.546875 2.503906 -10.539062 2.578125 -10.53125 C 2.648438 -10.519531 2.710938 -10.5 2.765625 -10.46875 C 2.828125 -10.445312 2.882812 -10.410156 2.9375 -10.359375 C 2.988281 -10.304688 3.050781 -10.242188 3.125 -10.171875 L 8.125 -3.828125 C 8.101562 -4.035156 8.085938 -4.234375 8.078125 -4.421875 C 8.066406 -4.609375 8.0625 -4.789062 8.0625 -4.96875 L 8.0625 -10.546875 Z M 10.21875 -10.546875 "/></g></g></g><g fill="#0846a8" fill-opacity="1"><g transform="translate(156.378493, 279.434221)"><g/></g></g><g fill="#0846a8" fill-opacity="1"><g transform="translate(163.760618, 279.434221)"><g><path d="M 10.578125 -5.28125 C 10.578125 -4.507812 10.445312 -3.800781 10.1875 -3.15625 C 9.925781 -2.519531 9.554688 -1.960938 9.078125 -1.484375 C 8.597656 -1.015625 8.019531 -0.648438 7.34375 -0.390625 C 6.675781 -0.128906 5.929688 0 5.109375 0 L 1.015625 0 L 1.015625 -10.546875 L 5.109375 -10.546875 C 5.929688 -10.546875 6.675781 -10.410156 7.34375 -10.140625 C 8.019531 -9.878906 8.597656 -9.515625 9.078125 -9.046875 C 9.554688 -8.578125 9.925781 -8.019531 10.1875 -7.375 C 10.445312 -6.726562 10.578125 -6.03125 10.578125 -5.28125 Z M 8.078125 -5.28125 C 8.078125 -5.800781 8.007812 -6.269531 7.875 -6.6875 C 7.738281 -7.101562 7.546875 -7.457031 7.296875 -7.75 C 7.046875 -8.039062 6.734375 -8.265625 6.359375 -8.421875 C 5.992188 -8.578125 5.578125 -8.65625 5.109375 -8.65625 L 3.484375 -8.65625 L 3.484375 -1.875 L 5.109375 -1.875 C 5.578125 -1.875 5.992188 -1.953125 6.359375 -2.109375 C 6.734375 -2.265625 7.046875 -2.488281 7.296875 -2.78125 C 7.546875 -3.070312 7.738281 -3.425781 7.875 -3.84375 C 8.007812 -4.269531 8.078125 -4.75 8.078125 -5.28125 Z M 8.078125 -5.28125 "/></g></g></g><g fill="#0846a8" fill-opacity="1"><g transform="translate(178.813168, 279.434221)"><g><path d="M 3.484375 -8.65625 L 3.484375 -6.203125 L 6.796875 -6.203125 L 6.796875 -4.390625 L 3.484375 -4.390625 L 3.484375 -1.875 L 7.8125 -1.875 L 7.8125 0 L 1.015625 0 L 1.015625 -10.546875 L 7.8125 -10.546875 L 7.8125 -8.65625 Z M 3.484375 -8.65625 "/></g></g></g><g fill="#0846a8" fill-opacity="1"><g transform="translate(191.144886, 279.434221)"><g><path d="M 12.875 -10.546875 L 12.875 0 L 10.71875 0 L 10.71875 -6.0625 C 10.71875 -6.195312 10.71875 -6.347656 10.71875 -6.515625 C 10.726562 -6.679688 10.742188 -6.847656 10.765625 -7.015625 L 7.96875 -1.59375 C 7.875 -1.425781 7.753906 -1.296875 7.609375 -1.203125 C 7.460938 -1.117188 7.296875 -1.078125 7.109375 -1.078125 L 6.78125 -1.078125 C 6.59375 -1.078125 6.425781 -1.117188 6.28125 -1.203125 C 6.132812 -1.296875 6.015625 -1.425781 5.921875 -1.59375 L 3.125 -7.03125 C 3.132812 -6.851562 3.144531 -6.679688 3.15625 -6.515625 C 3.164062 -6.347656 3.171875 -6.195312 3.171875 -6.0625 L 3.171875 0 L 1.015625 0 L 1.015625 -10.546875 L 2.890625 -10.546875 C 2.992188 -10.546875 3.082031 -10.539062 3.15625 -10.53125 C 3.238281 -10.53125 3.3125 -10.515625 3.375 -10.484375 C 3.4375 -10.460938 3.492188 -10.425781 3.546875 -10.375 C 3.597656 -10.320312 3.648438 -10.253906 3.703125 -10.171875 L 6.40625 -4.8125 C 6.5 -4.632812 6.59375 -4.445312 6.6875 -4.25 C 6.78125 -4.050781 6.863281 -3.847656 6.9375 -3.640625 C 7.019531 -3.847656 7.101562 -4.050781 7.1875 -4.25 C 7.28125 -4.457031 7.378906 -4.65625 7.484375 -4.84375 L 10.1875 -10.171875 C 10.238281 -10.253906 10.289062 -10.320312 10.34375 -10.375 C 10.394531 -10.425781 10.453125 -10.460938 10.515625 -10.484375 C 10.578125 -10.515625 10.644531 -10.53125 10.71875 -10.53125 C 10.800781 -10.539062 10.894531 -10.546875 11 -10.546875 Z M 12.875 -10.546875 "/></g></g></g><g fill="#0846a8" fill-opacity="1"><g transform="translate(209.077456, 279.434221)"><g><path d="M 6.59375 -4.03125 L 5.609375 -6.921875 C 5.535156 -7.097656 5.457031 -7.3125 5.375 -7.5625 C 5.300781 -7.8125 5.222656 -8.082031 5.140625 -8.375 C 5.066406 -8.070312 4.988281 -7.796875 4.90625 -7.546875 C 4.820312 -7.296875 4.742188 -7.082031 4.671875 -6.90625 L 3.703125 -4.03125 Z M 10.46875 0 L 8.578125 0 C 8.367188 0 8.195312 -0.046875 8.0625 -0.140625 C 7.9375 -0.242188 7.835938 -0.375 7.765625 -0.53125 L 7.140625 -2.359375 L 3.140625 -2.359375 L 2.515625 -0.53125 C 2.460938 -0.394531 2.367188 -0.269531 2.234375 -0.15625 C 2.097656 -0.0507812 1.925781 0 1.71875 0 L -0.1875 0 L 3.890625 -10.546875 L 6.390625 -10.546875 Z M 10.46875 0 "/></g></g></g><g fill="#0846a8" fill-opacity="1"><g transform="translate(223.406374, 279.434221)"><g><path d="M 10.21875 -10.546875 L 10.21875 0 L 8.953125 0 C 8.765625 0 8.601562 -0.03125 8.46875 -0.09375 C 8.34375 -0.15625 8.21875 -0.257812 8.09375 -0.40625 L 3.125 -6.6875 C 3.144531 -6.5 3.15625 -6.316406 3.15625 -6.140625 C 3.164062 -5.960938 3.171875 -5.800781 3.171875 -5.65625 L 3.171875 0 L 1.015625 0 L 1.015625 -10.546875 L 2.3125 -10.546875 C 2.414062 -10.546875 2.503906 -10.539062 2.578125 -10.53125 C 2.648438 -10.519531 2.710938 -10.5 2.765625 -10.46875 C 2.828125 -10.445312 2.882812 -10.410156 2.9375 -10.359375 C 2.988281 -10.304688 3.050781 -10.242188 3.125 -10.171875 L 8.125 -3.828125 C 8.101562 -4.035156 8.085938 -4.234375 8.078125 -4.421875 C 8.066406 -4.609375 8.0625 -4.789062 8.0625 -4.96875 L 8.0625 -10.546875 Z M 10.21875 -10.546875 "/></g></g></g><g fill="#0846a8" fill-opacity="1"><g transform="translate(238.690484, 279.434221)"><g><path d="M 10.578125 -5.28125 C 10.578125 -4.507812 10.445312 -3.800781 10.1875 -3.15625 C 9.925781 -2.519531 9.554688 -1.960938 9.078125 -1.484375 C 8.597656 -1.015625 8.019531 -0.648438 7.34375 -0.390625 C 6.675781 -0.128906 5.929688 0 5.109375 0 L 1.015625 0 L 1.015625 -10.546875 L 5.109375 -10.546875 C 5.929688 -10.546875 6.675781 -10.410156 7.34375 -10.140625 C 8.019531 -9.878906 8.597656 -9.515625 9.078125 -9.046875 C 9.554688 -8.578125 9.925781 -8.019531 10.1875 -7.375 C 10.445312 -6.726562 10.578125 -6.03125 10.578125 -5.28125 Z M 8.078125 -5.28125 C 8.078125 -5.800781 8.007812 -6.269531 7.875 -6.6875 C 7.738281 -7.101562 7.546875 -7.457031 7.296875 -7.75 C 7.046875 -8.039062 6.734375 -8.265625 6.359375 -8.421875 C 5.992188 -8.578125 5.578125 -8.65625 5.109375 -8.65625 L 3.484375 -8.65625 L 3.484375 -1.875 L 5.109375 -1.875 C 5.578125 -1.875 5.992188 -1.953125 6.359375 -2.109375 C 6.734375 -2.265625 7.046875 -2.488281 7.296875 -2.78125 C 7.546875 -3.070312 7.738281 -3.425781 7.875 -3.84375 C 8.007812 -4.269531 8.078125 -4.75 8.078125 -5.28125 Z M 8.078125 -5.28125 "/></g></g></g></svg>