<svg xmlns="http://www.w3.org/2000/svg" xmlns:xlink="http://www.w3.org/1999/xlink" width="500" zoomAndPan="magnify" viewBox="0 0 375 374.999991" height="500" preserveAspectRatio="xMidYMid meet" version="1.0"><defs><g/><clipPath id="2529022269"><path d="M 110.03125 111 L 222 111 L 222 221 L 110.03125 221 Z M 110.03125 111 " clip-rule="nonzero"/></clipPath><clipPath id="232d9d69e0"><path d="M 193 138 L 265 138 L 265 223.769531 L 193 223.769531 Z M 193 138 " clip-rule="nonzero"/></clipPath><clipPath id="4dee00c611"><path d="M 164 91.769531 L 236 91.769531 L 236 156 L 164 156 Z M 164 91.769531 " clip-rule="nonzero"/></clipPath><clipPath id="97b09e48e8"><path d="M 299.515625 277.808594 L 310.71875 277.808594 L 310.71875 283.203125 L 299.515625 283.203125 Z M 299.515625 277.808594 " clip-rule="nonzero"/></clipPath><clipPath id="4f07d157ce"><path d="M 299.515625 260.445312 L 306.578125 260.445312 L 306.578125 283.203125 L 299.515625 283.203125 Z M 299.515625 260.445312 " clip-rule="nonzero"/></clipPath><clipPath id="2ed26fd0eb"><path d="M 280.175781 277.808594 L 291.375 277.808594 L 291.375 283.203125 L 280.175781 283.203125 Z M 280.175781 277.808594 " clip-rule="nonzero"/></clipPath><clipPath id="758dc1fecf"><path d="M 284.316406 260.445312 L 291.375 260.445312 L 291.375 283.203125 L 284.316406 283.203125 Z M 284.316406 260.445312 " clip-rule="nonzero"/></clipPath><clipPath id="0b2642bce5"><path d="M 292 208.390625 L 299 208.390625 L 299 215 L 292 215 Z M 292 208.390625 " clip-rule="nonzero"/></clipPath><clipPath id="26a2b8954d"><path d="M 314.671875 255.832031 L 325.402344 255.832031 L 325.402344 265.222656 L 314.671875 265.222656 Z M 314.671875 255.832031 " clip-rule="nonzero"/></clipPath></defs><rect x="-37.5" width="450" fill="#ffffff" y="-37.499999" height="449.999989" fill-opacity="1"/><rect x="-37.5" width="450" fill="#ffffff" y="-37.499999" height="449.999989" fill-opacity="1"/><g clip-path="url(#2529022269)"><path fill="#0846a8" d="M 165.71875 200.3125 C 146.6875 200.3125 131.257812 184.886719 131.257812 165.855469 C 131.257812 146.820312 146.6875 131.390625 165.71875 131.390625 C 184.753906 131.390625 200.179688 146.820312 200.179688 165.855469 C 200.179688 184.886719 184.753906 200.3125 165.71875 200.3125 Z M 220.949219 173.117188 C 221.257812 170.738281 221.417969 168.316406 221.417969 165.855469 C 221.417969 163.390625 221.257812 160.96875 220.949219 158.589844 L 211.996094 155.644531 C 211.332031 152.609375 210.375 149.6875 209.160156 146.902344 L 214.667969 139.257812 C 212.332031 134.96875 209.453125 131.023438 206.117188 127.507812 L 197.144531 130.394531 C 194.855469 128.359375 192.367188 126.550781 189.710938 124.984375 L 189.683594 115.558594 C 185.359375 113.5 180.730469 111.976562 175.882812 111.082031 L 170.316406 118.691406 C 168.804688 118.546875 167.269531 118.46875 165.71875 118.46875 C 164.167969 118.46875 162.636719 118.546875 161.125 118.691406 L 155.558594 111.082031 C 150.707031 111.976562 146.078125 113.5 141.757812 115.558594 L 141.726562 124.984375 C 139.074219 126.550781 136.585938 128.359375 134.296875 130.394531 L 125.320312 127.507812 C 121.988281 131.023438 119.105469 134.96875 116.769531 139.257812 L 122.28125 146.902344 C 121.0625 149.6875 120.105469 152.609375 119.441406 155.644531 L 110.492188 158.589844 C 110.183594 160.96875 110.019531 163.390625 110.019531 165.855469 C 110.019531 168.316406 110.183594 170.738281 110.492188 173.117188 L 119.441406 176.0625 C 120.105469 179.097656 121.0625 182.019531 122.28125 184.804688 L 116.769531 192.453125 C 119.105469 196.738281 121.988281 200.6875 125.320312 204.199219 L 134.296875 201.316406 C 136.585938 203.347656 139.074219 205.160156 141.726562 206.71875 L 141.757812 216.144531 C 146.078125 218.207031 150.707031 219.730469 155.558594 220.625 L 161.125 213.015625 C 162.636719 213.160156 164.167969 213.238281 165.71875 213.238281 C 167.269531 213.238281 168.804688 213.160156 170.316406 213.015625 L 175.882812 220.625 C 180.730469 219.730469 185.359375 218.207031 189.683594 216.144531 L 189.714844 206.71875 C 192.367188 205.160156 194.855469 203.347656 197.144531 201.316406 L 206.117188 204.199219 C 209.453125 200.6875 212.332031 196.738281 214.667969 192.453125 L 209.160156 184.804688 C 210.375 182.019531 211.332031 179.097656 211.996094 176.0625 L 220.949219 173.117188 " fill-opacity="1" fill-rule="nonzero"/></g><g clip-path="url(#232d9d69e0)"><path fill="#0846a8" d="M 264.578125 186.464844 C 264.820312 184.605469 264.949219 182.714844 264.949219 180.792969 C 264.949219 178.867188 264.820312 176.972656 264.578125 175.113281 L 257.589844 172.8125 C 257.066406 170.441406 256.320312 168.15625 255.371094 165.980469 L 259.675781 160.007812 C 257.851562 156.65625 255.597656 153.574219 252.992188 150.832031 L 245.980469 153.082031 C 244.191406 151.496094 242.246094 150.078125 240.175781 148.859375 L 240.152344 141.492188 C 237.746094 140.34375 235.214844 139.414062 232.585938 138.71875 L 232.433594 138.773438 C 232.210938 139.554688 231.957031 140.332031 231.679688 141.097656 L 235.589844 146.519531 L 234.414062 148.675781 C 233.121094 151.046875 231.597656 153.289062 229.871094 155.371094 C 241.46875 158.476562 250.007812 169.054688 250.007812 181.628906 C 250.007812 196.644531 237.835938 208.820312 222.820312 208.820312 C 218.214844 208.820312 213.882812 207.671875 210.082031 205.652344 C 209.707031 206.066406 209.332031 206.480469 208.949219 206.882812 L 207.261719 208.664062 L 198.011719 205.695312 C 196.605469 206.839844 195.132812 207.910156 193.609375 208.898438 L 193.605469 209.546875 L 196.875 208.496094 C 198.664062 210.085938 200.609375 211.5 202.679688 212.71875 L 202.703125 220.085938 C 206.082031 221.699219 209.699219 222.886719 213.488281 223.582031 L 217.835938 217.640625 C 219.015625 217.753906 220.214844 217.8125 221.425781 217.8125 C 222.640625 217.8125 223.839844 217.753906 225.019531 217.640625 L 229.367188 223.582031 C 233.15625 222.886719 236.773438 221.699219 240.152344 220.085938 L 240.175781 212.71875 C 242.246094 211.5 244.191406 210.085938 245.980469 208.496094 L 252.992188 210.75 C 255.597656 208.003906 257.851562 204.921875 259.675781 201.570312 L 255.371094 195.597656 C 256.320312 193.421875 257.066406 191.136719 257.589844 188.769531 L 264.578125 186.464844 " fill-opacity="1" fill-rule="nonzero"/></g><g clip-path="url(#4dee00c611)"><path fill="#0846a8" d="M 235.230469 133.742188 C 235.441406 132.136719 235.546875 130.496094 235.546875 128.832031 C 235.546875 127.167969 235.441406 125.53125 235.230469 123.921875 L 229.179688 121.933594 C 228.730469 119.882812 228.085938 117.902344 227.261719 116.023438 L 230.984375 110.851562 C 229.410156 107.953125 227.460938 105.289062 225.207031 102.914062 L 219.140625 104.863281 C 217.589844 103.488281 215.910156 102.265625 214.117188 101.207031 L 214.097656 94.835938 C 211.175781 93.441406 208.046875 92.414062 204.765625 91.8125 L 201.003906 96.957031 C 199.984375 96.855469 198.945312 96.804688 197.898438 96.804688 C 196.851562 96.804688 195.816406 96.855469 194.792969 96.957031 L 191.03125 91.8125 C 187.753906 92.414062 184.625 93.441406 181.703125 94.835938 L 181.683594 101.207031 C 179.886719 102.265625 178.207031 103.488281 176.660156 104.863281 L 170.59375 102.914062 C 168.339844 105.289062 166.390625 107.953125 164.8125 110.851562 L 167.515625 114.601562 C 167.824219 114.613281 168.132812 114.625 168.445312 114.640625 L 174.179688 106.800781 L 176.589844 107.246094 C 180.023438 107.878906 183.394531 108.8125 186.65625 110.039062 C 190.046875 107.855469 194.082031 106.582031 198.417969 106.582031 C 210.425781 106.582031 220.164062 116.320312 220.164062 128.328125 C 220.164062 131.601562 219.4375 134.695312 218.144531 137.480469 L 219.269531 139.546875 L 213.59375 147.425781 C 214.246094 149.121094 214.808594 150.859375 215.277344 152.613281 L 224.257812 155.882812 C 226.511719 153.511719 229.410156 149.707031 230.984375 146.8125 L 227.261719 141.640625 C 228.085938 139.761719 228.730469 137.785156 229.179688 135.734375 L 235.230469 133.742188 " fill-opacity="1" fill-rule="nonzero"/></g><path fill="#0846a8" d="M 284.855469 234.589844 L 306.039062 234.589844 L 306.039062 221.453125 L 284.855469 221.453125 Z M 306.695312 235.902344 L 284.199219 235.902344 C 283.835938 235.902344 283.542969 235.609375 283.542969 235.246094 L 283.542969 220.796875 C 283.542969 220.433594 283.835938 220.140625 284.199219 220.140625 L 306.695312 220.140625 C 307.058594 220.140625 307.351562 220.433594 307.351562 220.796875 L 307.351562 235.246094 C 307.351562 235.609375 307.058594 235.902344 306.695312 235.902344 " fill-opacity="1" fill-rule="evenodd"/><path fill="#0846a8" d="M 310.117188 232.128906 L 306.695312 232.128906 C 306.335938 232.128906 306.039062 231.835938 306.039062 231.472656 C 306.039062 231.113281 306.332031 230.816406 306.695312 230.816406 L 309.460938 230.816406 L 309.460938 225.226562 L 306.695312 225.226562 C 306.335938 225.226562 306.039062 224.929688 306.039062 224.570312 C 306.039062 224.207031 306.332031 223.914062 306.695312 223.914062 L 310.117188 223.914062 C 310.480469 223.914062 310.773438 224.207031 310.773438 224.570312 L 310.773438 231.472656 C 310.773438 231.835938 310.480469 232.128906 310.117188 232.128906 " fill-opacity="1" fill-rule="evenodd"/><path fill="#0846a8" d="M 292.359375 239.378906 C 292 239.378906 291.703125 239.085938 291.703125 238.722656 L 291.703125 235.246094 C 291.703125 234.886719 291.996094 234.589844 292.359375 234.589844 C 292.722656 234.589844 293.015625 234.886719 293.015625 235.246094 L 293.015625 238.722656 C 293.015625 239.085938 292.722656 239.378906 292.359375 239.378906 Z M 298.535156 239.378906 C 298.171875 239.378906 297.878906 239.085938 297.878906 238.722656 L 297.878906 235.246094 C 297.878906 234.886719 298.171875 234.589844 298.535156 234.589844 C 298.898438 234.589844 299.191406 234.886719 299.191406 235.246094 L 299.191406 238.722656 C 299.191406 239.085938 298.898438 239.378906 298.535156 239.378906 " fill-opacity="1" fill-rule="evenodd"/><path fill="#0846a8" d="M 301.429688 242.355469 C 301.066406 242.355469 300.773438 242.0625 300.773438 241.699219 L 300.773438 239.378906 L 290.121094 239.378906 L 290.121094 241.699219 C 290.121094 242.0625 289.828125 242.355469 289.464844 242.355469 C 289.101562 242.355469 288.808594 242.0625 288.808594 241.699219 L 288.808594 238.722656 C 288.808594 238.359375 289.101562 238.066406 289.464844 238.066406 L 301.429688 238.066406 C 301.792969 238.066406 302.085938 238.359375 302.085938 238.722656 L 302.085938 241.699219 C 302.085938 242.0625 301.792969 242.355469 301.429688 242.355469 " fill-opacity="1" fill-rule="evenodd"/><path fill="#0846a8" d="M 280.042969 260.449219 L 310.855469 260.449219 L 310.855469 242.359375 L 280.042969 242.359375 Z M 311.511719 261.765625 L 279.382812 261.765625 C 279.019531 261.765625 278.722656 261.472656 278.722656 261.109375 L 278.722656 241.699219 C 278.722656 241.335938 279.019531 241.042969 279.382812 241.042969 L 311.511719 241.042969 C 311.878906 241.042969 312.171875 241.335938 312.171875 241.699219 L 312.171875 261.109375 C 312.171875 261.472656 311.875 261.765625 311.511719 261.765625 " fill-opacity="1" fill-rule="evenodd"/><path fill="#0846a8" d="M 289.285156 226.347656 C 288.359375 226.347656 287.609375 227.097656 287.609375 228.023438 C 287.609375 228.945312 288.359375 229.695312 289.285156 229.695312 C 290.207031 229.695312 290.960938 228.945312 290.960938 228.023438 C 290.960938 227.097656 290.207031 226.347656 289.285156 226.347656 Z M 289.285156 231.007812 C 287.636719 231.007812 286.296875 229.667969 286.296875 228.023438 C 286.296875 226.375 287.636719 225.035156 289.285156 225.035156 C 290.933594 225.035156 292.269531 226.375 292.269531 228.023438 C 292.269531 229.667969 290.933594 231.007812 289.285156 231.007812 " fill-opacity="1" fill-rule="evenodd"/><path fill="#0846a8" d="M 301.609375 226.347656 C 300.6875 226.347656 299.9375 227.097656 299.9375 228.023438 C 299.9375 228.945312 300.6875 229.695312 301.609375 229.695312 C 302.535156 229.695312 303.285156 228.945312 303.285156 228.023438 C 303.285156 227.097656 302.535156 226.347656 301.609375 226.347656 Z M 301.609375 231.007812 C 299.964844 231.007812 298.625 229.667969 298.625 228.023438 C 298.625 226.375 299.964844 225.035156 301.609375 225.035156 C 303.257812 225.035156 304.597656 226.375 304.597656 228.023438 C 304.597656 229.667969 303.257812 231.007812 301.609375 231.007812 " fill-opacity="1" fill-rule="evenodd"/><path fill="#0846a8" d="M 284.335938 254.269531 L 286.511719 254.269531 L 286.511719 248.539062 L 284.335938 248.539062 Z M 287.171875 255.589844 L 283.675781 255.589844 C 283.3125 255.589844 283.015625 255.292969 283.015625 254.929688 L 283.015625 247.878906 C 283.015625 247.515625 283.3125 247.21875 283.675781 247.21875 L 287.171875 247.21875 C 287.535156 247.21875 287.832031 247.515625 287.832031 247.878906 L 287.832031 254.929688 C 287.832031 255.292969 287.535156 255.589844 287.171875 255.589844 " fill-opacity="1" fill-rule="evenodd"/><path fill="#0846a8" d="M 301.042969 250.253906 L 289.96875 250.253906 C 289.605469 250.253906 289.3125 249.960938 289.3125 249.597656 C 289.3125 249.234375 289.605469 248.941406 289.96875 248.941406 L 301.042969 248.941406 C 301.402344 248.941406 301.695312 249.234375 301.695312 249.597656 C 301.695312 249.960938 301.402344 250.253906 301.042969 250.253906 " fill-opacity="1" fill-rule="evenodd"/><path fill="#0846a8" d="M 301.042969 253.867188 L 289.96875 253.867188 C 289.605469 253.867188 289.3125 253.574219 289.3125 253.210938 C 289.3125 252.847656 289.605469 252.554688 289.96875 252.554688 L 301.042969 252.554688 C 301.402344 252.554688 301.695312 252.847656 301.695312 253.210938 C 301.695312 253.574219 301.402344 253.867188 301.042969 253.867188 " fill-opacity="1" fill-rule="evenodd"/><path fill="#0846a8" d="M 304.382812 254.269531 L 306.5625 254.269531 L 306.5625 248.539062 L 304.382812 248.539062 Z M 307.21875 255.589844 L 303.722656 255.589844 C 303.359375 255.589844 303.0625 255.292969 303.0625 254.929688 L 303.0625 247.878906 C 303.0625 247.515625 303.359375 247.21875 303.722656 247.21875 L 307.21875 247.21875 C 307.582031 247.21875 307.878906 247.515625 307.878906 247.878906 L 307.878906 254.929688 C 307.878906 255.292969 307.582031 255.589844 307.21875 255.589844 " fill-opacity="1" fill-rule="evenodd"/><path fill="#0846a8" d="M 295.445312 221.453125 C 295.085938 221.453125 294.789062 221.15625 294.789062 220.796875 L 294.792969 214.34375 C 294.792969 213.980469 295.085938 213.6875 295.445312 213.6875 C 295.808594 213.6875 296.101562 213.980469 296.101562 214.34375 L 296.101562 220.796875 C 296.101562 221.15625 295.808594 221.453125 295.445312 221.453125 " fill-opacity="1" fill-rule="evenodd"/><g clip-path="url(#97b09e48e8)"><path fill="#0846a8" d="M 300.914062 281.886719 L 309.324219 281.886719 C 308.976562 280.328125 307.222656 279.144531 305.117188 279.144531 C 304.214844 279.144531 303.347656 279.363281 302.617188 279.773438 C 301.710938 280.285156 301.101562 281.050781 300.914062 281.886719 Z M 310.042969 283.203125 L 300.191406 283.203125 C 299.835938 283.203125 299.542969 282.917969 299.535156 282.5625 C 299.53125 282.523438 299.53125 282.488281 299.53125 282.453125 C 299.53125 280.917969 300.445312 279.488281 301.972656 278.628906 C 302.898438 278.105469 303.988281 277.828125 305.117188 277.828125 C 308.195312 277.828125 310.703125 279.902344 310.703125 282.453125 C 310.703125 282.488281 310.699219 282.523438 310.699219 282.5625 C 310.691406 282.917969 310.398438 283.203125 310.042969 283.203125 " fill-opacity="1" fill-rule="evenodd"/></g><g clip-path="url(#4f07d157ce)"><path fill="#0846a8" d="M 305.902344 279.191406 C 305.539062 279.191406 305.246094 278.898438 305.246094 278.535156 L 305.246094 261.109375 C 305.246094 260.746094 305.539062 260.453125 305.902344 260.453125 C 306.261719 260.453125 306.558594 260.746094 306.558594 261.109375 L 306.558594 278.535156 C 306.558594 278.898438 306.261719 279.191406 305.902344 279.191406 Z M 300.191406 283.199219 C 299.839844 283.199219 299.546875 282.917969 299.535156 282.5625 C 299.535156 282.53125 299.535156 282.5 299.535156 282.464844 C 299.535156 282.464844 299.535156 282.460938 299.535156 282.457031 C 299.535156 282.453125 299.535156 282.453125 299.535156 282.453125 L 299.535156 261.109375 C 299.535156 260.746094 299.828125 260.453125 300.191406 260.453125 C 300.554688 260.453125 300.847656 260.746094 300.847656 261.109375 L 300.847656 282.53125 C 300.855469 282.890625 300.570312 283.191406 300.207031 283.199219 C 300.203125 283.199219 300.199219 283.199219 300.191406 283.199219 " fill-opacity="1" fill-rule="evenodd"/></g><g clip-path="url(#2ed26fd0eb)"><path fill="#0846a8" d="M 281.570312 281.886719 L 289.980469 281.886719 C 289.789062 281.050781 289.183594 280.285156 288.277344 279.773438 C 287.542969 279.363281 286.679688 279.144531 285.777344 279.144531 C 283.671875 279.144531 281.917969 280.328125 281.570312 281.886719 Z M 290.703125 283.203125 L 280.851562 283.203125 C 280.496094 283.203125 280.207031 282.917969 280.195312 282.566406 C 280.191406 282.527344 280.191406 282.488281 280.191406 282.453125 C 280.191406 279.902344 282.695312 277.828125 285.777344 277.828125 C 286.90625 277.828125 287.992188 278.105469 288.921875 278.628906 C 290.449219 279.488281 291.359375 280.917969 291.359375 282.453125 C 291.363281 282.488281 291.359375 282.523438 291.359375 282.5625 C 291.351562 282.917969 291.058594 283.203125 290.703125 283.203125 " fill-opacity="1" fill-rule="evenodd"/></g><g clip-path="url(#758dc1fecf)"><path fill="#0846a8" d="M 284.992188 279.191406 C 284.628906 279.191406 284.335938 278.898438 284.335938 278.535156 L 284.335938 261.109375 C 284.335938 260.746094 284.628906 260.453125 284.992188 260.453125 C 285.355469 260.453125 285.648438 260.746094 285.648438 261.109375 L 285.648438 278.535156 C 285.648438 278.898438 285.355469 279.191406 284.992188 279.191406 Z M 290.703125 283.199219 C 290.527344 283.199219 290.355469 283.128906 290.230469 283 C 290.109375 282.875 290.039062 282.699219 290.046875 282.523438 L 290.046875 282.457031 C 290.046875 282.453125 290.046875 282.453125 290.046875 282.453125 L 290.046875 261.109375 C 290.046875 260.746094 290.339844 260.453125 290.703125 260.453125 C 291.066406 260.453125 291.359375 260.746094 291.359375 261.109375 L 291.359375 282.453125 C 291.359375 282.453125 291.359375 282.453125 291.359375 282.457031 C 291.359375 282.457031 291.359375 282.460938 291.359375 282.460938 L 291.359375 282.542969 C 291.359375 282.90625 291.066406 283.199219 290.703125 283.199219 " fill-opacity="1" fill-rule="evenodd"/></g><path fill="#0846a8" d="M 284.199219 232.128906 L 280.777344 232.128906 C 280.417969 232.128906 280.121094 231.835938 280.121094 231.472656 L 280.125 224.570312 C 280.125 224.207031 280.417969 223.914062 280.777344 223.914062 L 284.199219 223.914062 C 284.5625 223.914062 284.855469 224.207031 284.855469 224.570312 C 284.855469 224.929688 284.5625 225.226562 284.199219 225.226562 L 281.433594 225.226562 L 281.433594 230.816406 L 284.199219 230.816406 C 284.5625 230.816406 284.855469 231.113281 284.855469 231.472656 C 284.855469 231.835938 284.5625 232.128906 284.199219 232.128906 " fill-opacity="1" fill-rule="evenodd"/><g clip-path="url(#0b2642bce5)"><path fill="#0846a8" d="M 295.445312 209.730469 C 294.355469 209.730469 293.46875 210.617188 293.46875 211.710938 C 293.46875 212.800781 294.355469 213.6875 295.445312 213.6875 C 296.539062 213.6875 297.425781 212.800781 297.425781 211.710938 C 297.425781 210.617188 296.539062 209.730469 295.445312 209.730469 Z M 295.445312 215 C 293.632812 215 292.15625 213.523438 292.15625 211.710938 C 292.15625 209.894531 293.632812 208.417969 295.445312 208.417969 C 297.261719 208.417969 298.738281 209.894531 298.738281 211.710938 C 298.738281 213.523438 297.261719 215 295.445312 215 " fill-opacity="1" fill-rule="evenodd"/></g><path fill="#0846a8" d="M 320.042969 246.46875 L 311.511719 246.46875 C 311.148438 246.46875 310.855469 246.175781 310.855469 245.8125 C 310.855469 245.453125 311.148438 245.160156 311.511719 245.160156 L 320.042969 245.160156 C 320.40625 245.160156 320.699219 245.453125 320.699219 245.8125 C 320.699219 246.179688 320.40625 246.46875 320.042969 246.46875 " fill-opacity="1" fill-rule="evenodd"/><path fill="#0846a8" d="M 320.042969 257.164062 C 319.679688 257.164062 319.386719 256.871094 319.386719 256.507812 L 319.386719 245.8125 C 319.386719 245.453125 319.679688 245.160156 320.042969 245.160156 C 320.40625 245.160156 320.699219 245.453125 320.699219 245.8125 L 320.699219 256.507812 C 320.699219 256.871094 320.40625 257.164062 320.042969 257.164062 " fill-opacity="1" fill-rule="evenodd"/><g clip-path="url(#26a2b8954d)"><path fill="#0846a8" d="M 323.371094 265.195312 C 323.203125 265.195312 323.035156 265.132812 322.90625 265.003906 C 322.652344 264.75 322.652344 264.335938 322.90625 264.078125 C 324.484375 262.5 324.484375 259.929688 322.90625 258.351562 C 322.140625 257.585938 321.125 257.164062 320.042969 257.164062 C 318.960938 257.164062 317.945312 257.585938 317.179688 258.351562 C 315.601562 259.929688 315.601562 262.5 317.179688 264.078125 C 317.4375 264.335938 317.4375 264.75 317.179688 265.003906 C 316.925781 265.261719 316.507812 265.261719 316.253906 265.003906 C 314.160156 262.914062 314.160156 259.515625 316.253906 257.421875 C 317.265625 256.410156 318.609375 255.851562 320.042969 255.851562 C 321.476562 255.851562 322.824219 256.410156 323.835938 257.421875 C 325.925781 259.515625 325.925781 262.914062 323.835938 265.003906 C 323.707031 265.132812 323.539062 265.195312 323.371094 265.195312 " fill-opacity="1" fill-rule="evenodd"/></g><path fill="#0846a8" d="M 270.851562 246.46875 C 270.488281 246.46875 270.195312 246.179688 270.195312 245.8125 C 270.195312 245.453125 270.488281 245.15625 270.851562 245.15625 L 279.382812 245.15625 C 279.746094 245.15625 280.039062 245.453125 280.039062 245.8125 C 280.039062 246.175781 279.746094 246.46875 279.382812 246.46875 L 270.851562 246.46875 " fill-opacity="1" fill-rule="evenodd"/><path fill="#0846a8" d="M 270.851562 257.164062 C 270.488281 257.164062 270.195312 256.871094 270.195312 256.507812 L 270.195312 245.8125 C 270.195312 245.453125 270.488281 245.15625 270.851562 245.15625 C 271.214844 245.15625 271.507812 245.453125 271.507812 245.8125 L 271.507812 256.507812 C 271.507812 256.871094 271.210938 257.164062 270.851562 257.164062 " fill-opacity="1" fill-rule="evenodd"/><path fill="#0846a8" d="M 274.179688 265.195312 C 274.011719 265.195312 273.84375 265.132812 273.714844 265.003906 C 273.460938 264.75 273.457031 264.335938 273.714844 264.078125 C 275.292969 262.5 275.292969 259.929688 273.714844 258.351562 C 272.136719 256.769531 269.566406 256.769531 267.984375 258.351562 C 266.410156 259.929688 266.40625 262.5 267.984375 264.078125 C 268.242188 264.335938 268.242188 264.75 267.984375 265.003906 C 267.730469 265.261719 267.316406 265.261719 267.058594 265.003906 C 264.96875 262.914062 264.96875 259.515625 267.058594 257.421875 C 269.148438 255.332031 272.550781 255.332031 274.644531 257.421875 C 276.734375 259.515625 276.734375 262.914062 274.644531 265.003906 C 274.515625 265.132812 274.347656 265.195312 274.179688 265.195312 " fill-opacity="1" fill-rule="evenodd"/><g fill="#0846a8" fill-opacity="1"><g transform="translate(110.807877, 258.591854)"><g><path d="M 19.0625 -19.078125 L 12.484375 -19.078125 L 12.484375 0 L 7.0625 0 L 7.0625 -19.078125 L 0.484375 -19.078125 L 0.484375 -23.375 L 19.0625 -23.375 Z M 19.0625 -19.078125 "/></g></g></g><g fill="#0846a8" fill-opacity="1"><g transform="translate(133.686623, 258.591854)"><g><path d="M 7.71875 -19.203125 L 7.71875 -13.75 L 15.0625 -13.75 L 15.0625 -9.734375 L 7.71875 -9.734375 L 7.71875 -4.171875 L 17.3125 -4.171875 L 17.3125 0 L 2.265625 0 L 2.265625 -23.375 L 17.3125 -23.375 L 17.3125 -19.203125 Z M 7.71875 -19.203125 "/></g></g></g><g fill="#0846a8" fill-opacity="1"><g transform="translate(155.410272, 258.591854)"><g><path d="M 15.1875 -18.625 C 15.019531 -18.375 14.847656 -18.179688 14.671875 -18.046875 C 14.492188 -17.921875 14.269531 -17.859375 14 -17.859375 C 13.75 -17.859375 13.476562 -17.9375 13.1875 -18.09375 C 12.90625 -18.25 12.585938 -18.421875 12.234375 -18.609375 C 11.878906 -18.804688 11.46875 -18.984375 11 -19.140625 C 10.539062 -19.296875 10.019531 -19.375 9.4375 -19.375 C 8.414062 -19.375 7.65625 -19.15625 7.15625 -18.71875 C 6.664062 -18.28125 6.421875 -17.695312 6.421875 -16.96875 C 6.421875 -16.488281 6.566406 -16.09375 6.859375 -15.78125 C 7.160156 -15.476562 7.554688 -15.210938 8.046875 -14.984375 C 8.535156 -14.765625 9.09375 -14.5625 9.71875 -14.375 C 10.34375 -14.1875 10.976562 -13.976562 11.625 -13.75 C 12.28125 -13.519531 12.921875 -13.25 13.546875 -12.9375 C 14.171875 -12.625 14.726562 -12.226562 15.21875 -11.75 C 15.707031 -11.269531 16.097656 -10.679688 16.390625 -9.984375 C 16.691406 -9.296875 16.84375 -8.46875 16.84375 -7.5 C 16.84375 -6.414062 16.65625 -5.398438 16.28125 -4.453125 C 15.90625 -3.515625 15.363281 -2.695312 14.65625 -2 C 13.945312 -1.300781 13.070312 -0.75 12.03125 -0.34375 C 10.988281 0.0507812 9.800781 0.25 8.46875 0.25 C 7.738281 0.25 7 0.175781 6.25 0.03125 C 5.5 -0.113281 4.769531 -0.320312 4.0625 -0.59375 C 3.351562 -0.875 2.6875 -1.203125 2.0625 -1.578125 C 1.445312 -1.953125 0.910156 -2.367188 0.453125 -2.828125 L 2.046875 -5.359375 C 2.179688 -5.535156 2.351562 -5.6875 2.5625 -5.8125 C 2.769531 -5.9375 2.992188 -6 3.234375 -6 C 3.554688 -6 3.878906 -5.894531 4.203125 -5.6875 C 4.535156 -5.488281 4.90625 -5.265625 5.3125 -5.015625 C 5.726562 -4.773438 6.203125 -4.550781 6.734375 -4.34375 C 7.273438 -4.144531 7.910156 -4.046875 8.640625 -4.046875 C 9.617188 -4.046875 10.378906 -4.257812 10.921875 -4.6875 C 11.472656 -5.125 11.75 -5.8125 11.75 -6.75 C 11.75 -7.300781 11.597656 -7.742188 11.296875 -8.078125 C 10.992188 -8.421875 10.597656 -8.707031 10.109375 -8.9375 C 9.628906 -9.164062 9.078125 -9.363281 8.453125 -9.53125 C 7.835938 -9.695312 7.203125 -9.882812 6.546875 -10.09375 C 5.890625 -10.3125 5.25 -10.570312 4.625 -10.875 C 4.007812 -11.175781 3.457031 -11.578125 2.96875 -12.078125 C 2.488281 -12.578125 2.097656 -13.195312 1.796875 -13.9375 C 1.492188 -14.675781 1.34375 -15.59375 1.34375 -16.6875 C 1.34375 -17.5625 1.519531 -18.414062 1.875 -19.25 C 2.226562 -20.082031 2.75 -20.828125 3.4375 -21.484375 C 4.125 -22.140625 4.960938 -22.660156 5.953125 -23.046875 C 6.953125 -23.441406 8.09375 -23.640625 9.375 -23.640625 C 10.09375 -23.640625 10.789062 -23.582031 11.46875 -23.46875 C 12.144531 -23.351562 12.785156 -23.1875 13.390625 -22.96875 C 14.003906 -22.75 14.578125 -22.488281 15.109375 -22.1875 C 15.640625 -21.882812 16.113281 -21.539062 16.53125 -21.15625 Z M 15.1875 -18.625 "/></g></g></g><g fill="#0846a8" fill-opacity="1"><g transform="translate(176.524282, 258.591854)"><g><path d="M 19.0625 -19.078125 L 12.484375 -19.078125 L 12.484375 0 L 7.0625 0 L 7.0625 -19.078125 L 0.484375 -19.078125 L 0.484375 -23.375 L 19.0625 -23.375 Z M 19.0625 -19.078125 "/></g></g></g><g fill="#0846a8" fill-opacity="1"><g transform="translate(199.403029, 258.591854)"><g><path d="M 7.71875 0 L 2.265625 0 L 2.265625 -23.375 L 7.71875 -23.375 Z M 7.71875 0 "/></g></g></g><g fill="#0846a8" fill-opacity="1"><g transform="translate(212.720139, 258.591854)"><g><path d="M 22.671875 -23.375 L 22.671875 0 L 19.84375 0 C 19.425781 0 19.078125 -0.0664062 18.796875 -0.203125 C 18.515625 -0.335938 18.234375 -0.570312 17.953125 -0.90625 L 6.9375 -14.84375 C 6.976562 -14.425781 7.003906 -14.019531 7.015625 -13.625 C 7.035156 -13.238281 7.046875 -12.875 7.046875 -12.53125 L 7.046875 0 L 2.265625 0 L 2.265625 -23.375 L 5.125 -23.375 C 5.351562 -23.375 5.546875 -23.363281 5.703125 -23.34375 C 5.867188 -23.320312 6.015625 -23.28125 6.140625 -23.21875 C 6.273438 -23.164062 6.398438 -23.082031 6.515625 -22.96875 C 6.628906 -22.863281 6.765625 -22.722656 6.921875 -22.546875 L 18.03125 -8.5 C 17.976562 -8.945312 17.941406 -9.382812 17.921875 -9.8125 C 17.898438 -10.238281 17.890625 -10.640625 17.890625 -11.015625 L 17.890625 -23.375 Z M 22.671875 -23.375 "/></g></g></g><g fill="#0846a8" fill-opacity="1"><g transform="translate(240.989333, 258.591854)"><g><path d="M 13.5 -12.109375 L 21.8125 -12.109375 L 21.8125 -2.25 C 20.613281 -1.375 19.335938 -0.738281 17.984375 -0.34375 C 16.628906 0.0507812 15.210938 0.25 13.734375 0.25 C 11.804688 0.25 10.050781 -0.0507812 8.46875 -0.65625 C 6.894531 -1.257812 5.546875 -2.09375 4.421875 -3.15625 C 3.304688 -4.21875 2.441406 -5.476562 1.828125 -6.9375 C 1.222656 -8.394531 0.921875 -9.984375 0.921875 -11.703125 C 0.921875 -13.441406 1.207031 -15.039062 1.78125 -16.5 C 2.351562 -17.957031 3.175781 -19.21875 4.25 -20.28125 C 5.332031 -21.34375 6.632812 -22.164062 8.15625 -22.75 C 9.6875 -23.34375 11.390625 -23.640625 13.265625 -23.640625 C 14.242188 -23.640625 15.160156 -23.554688 16.015625 -23.390625 C 16.867188 -23.234375 17.65625 -23.015625 18.375 -22.734375 C 19.101562 -22.460938 19.765625 -22.132812 20.359375 -21.75 C 20.960938 -21.363281 21.5 -20.941406 21.96875 -20.484375 L 20.390625 -18.09375 C 20.148438 -17.726562 19.832031 -17.5 19.4375 -17.40625 C 19.050781 -17.320312 18.632812 -17.421875 18.1875 -17.703125 C 17.757812 -17.953125 17.351562 -18.171875 16.96875 -18.359375 C 16.59375 -18.546875 16.207031 -18.695312 15.8125 -18.8125 C 15.414062 -18.9375 14.992188 -19.023438 14.546875 -19.078125 C 14.109375 -19.128906 13.617188 -19.15625 13.078125 -19.15625 C 12.054688 -19.15625 11.140625 -18.972656 10.328125 -18.609375 C 9.515625 -18.253906 8.820312 -17.75 8.25 -17.09375 C 7.675781 -16.445312 7.234375 -15.664062 6.921875 -14.75 C 6.617188 -13.84375 6.46875 -12.828125 6.46875 -11.703125 C 6.46875 -10.460938 6.640625 -9.359375 6.984375 -8.390625 C 7.328125 -7.429688 7.8125 -6.617188 8.4375 -5.953125 C 9.0625 -5.285156 9.804688 -4.78125 10.671875 -4.4375 C 11.546875 -4.09375 12.515625 -3.921875 13.578125 -3.921875 C 14.222656 -3.921875 14.8125 -3.984375 15.34375 -4.109375 C 15.875 -4.234375 16.390625 -4.40625 16.890625 -4.625 L 16.890625 -8.171875 L 14.59375 -8.171875 C 14.25 -8.171875 13.976562 -8.257812 13.78125 -8.4375 C 13.59375 -8.625 13.5 -8.851562 13.5 -9.125 Z M 13.5 -12.109375 "/></g></g></g><g fill="#0846a8" fill-opacity="1"><g transform="translate(125.267559, 279.434221)"><g><path d="M 11.359375 -5.28125 C 11.359375 -4.507812 11.226562 -3.796875 10.96875 -3.140625 C 10.707031 -2.484375 10.335938 -1.910156 9.859375 -1.421875 C 9.378906 -0.941406 8.800781 -0.566406 8.125 -0.296875 C 7.457031 -0.0234375 6.710938 0.109375 5.890625 0.109375 C 5.078125 0.109375 4.332031 -0.0234375 3.65625 -0.296875 C 2.976562 -0.566406 2.398438 -0.941406 1.921875 -1.421875 C 1.441406 -1.910156 1.066406 -2.484375 0.796875 -3.140625 C 0.535156 -3.796875 0.40625 -4.507812 0.40625 -5.28125 C 0.40625 -6.039062 0.535156 -6.75 0.796875 -7.40625 C 1.066406 -8.0625 1.441406 -8.628906 1.921875 -9.109375 C 2.398438 -9.585938 2.976562 -9.960938 3.65625 -10.234375 C 4.332031 -10.515625 5.078125 -10.65625 5.890625 -10.65625 C 6.710938 -10.65625 7.457031 -10.515625 8.125 -10.234375 C 8.800781 -9.960938 9.378906 -9.582031 9.859375 -9.09375 C 10.335938 -8.613281 10.707031 -8.046875 10.96875 -7.390625 C 11.226562 -6.734375 11.359375 -6.03125 11.359375 -5.28125 Z M 8.859375 -5.28125 C 8.859375 -5.800781 8.789062 -6.269531 8.65625 -6.6875 C 8.519531 -7.101562 8.328125 -7.453125 8.078125 -7.734375 C 7.828125 -8.023438 7.515625 -8.25 7.140625 -8.40625 C 6.773438 -8.5625 6.359375 -8.640625 5.890625 -8.640625 C 5.421875 -8.640625 5 -8.5625 4.625 -8.40625 C 4.257812 -8.25 3.953125 -8.023438 3.703125 -7.734375 C 3.453125 -7.453125 3.257812 -7.101562 3.125 -6.6875 C 2.988281 -6.269531 2.921875 -5.800781 2.921875 -5.28125 C 2.921875 -4.75 2.988281 -4.273438 3.125 -3.859375 C 3.257812 -3.441406 3.453125 -3.085938 3.703125 -2.796875 C 3.953125 -2.503906 4.257812 -2.28125 4.625 -2.125 C 5 -1.976562 5.421875 -1.90625 5.890625 -1.90625 C 6.359375 -1.90625 6.773438 -1.976562 7.140625 -2.125 C 7.515625 -2.28125 7.828125 -2.503906 8.078125 -2.796875 C 8.328125 -3.085938 8.519531 -3.441406 8.65625 -3.859375 C 8.789062 -4.273438 8.859375 -4.75 8.859375 -5.28125 Z M 8.859375 -5.28125 "/></g></g></g><g fill="#0846a8" fill-opacity="1"><g transform="translate(141.094382, 279.434221)"><g><path d="M 10.21875 -10.546875 L 10.21875 0 L 8.953125 0 C 8.765625 0 8.601562 -0.03125 8.46875 -0.09375 C 8.34375 -0.15625 8.21875 -0.257812 8.09375 -0.40625 L 3.125 -6.6875 C 3.144531 -6.5 3.15625 -6.316406 3.15625 -6.140625 C 3.164062 -5.960938 3.171875 -5.800781 3.171875 -5.65625 L 3.171875 0 L 1.015625 0 L 1.015625 -10.546875 L 2.3125 -10.546875 C 2.414062 -10.546875 2.503906 -10.539062 2.578125 -10.53125 C 2.648438 -10.519531 2.710938 -10.5 2.765625 -10.46875 C 2.828125 -10.445312 2.882812 -10.410156 2.9375 -10.359375 C 2.988281 -10.304688 3.050781 -10.242188 3.125 -10.171875 L 8.125 -3.828125 C 8.101562 -4.035156 8.085938 -4.234375 8.078125 -4.421875 C 8.066406 -4.609375 8.0625 -4.789062 8.0625 -4.96875 L 8.0625 -10.546875 Z M 10.21875 -10.546875 "/></g></g></g><g fill="#0846a8" fill-opacity="1"><g transform="translate(156.378493, 279.434221)"><g/></g></g><g fill="#0846a8" fill-opacity="1"><g transform="translate(163.760618, 279.434221)"><g><path d="M 10.578125 -5.28125 C 10.578125 -4.507812 10.445312 -3.800781 10.1875 -3.15625 C 9.925781 -2.519531 9.554688 -1.960938 9.078125 -1.484375 C 8.597656 -1.015625 8.019531 -0.648438 7.34375 -0.390625 C 6.675781 -0.128906 5.929688 0 5.109375 0 L 1.015625 0 L 1.015625 -10.546875 L 5.109375 -10.546875 C 5.929688 -10.546875 6.675781 -10.410156 7.34375 -10.140625 C 8.019531 -9.878906 8.597656 -9.515625 9.078125 -9.046875 C 9.554688 -8.578125 9.925781 -8.019531 10.1875 -7.375 C 10.445312 -6.726562 10.578125 -6.03125 10.578125 -5.28125 Z M 8.078125 -5.28125 C 8.078125 -5.800781 8.007812 -6.269531 7.875 -6.6875 C 7.738281 -7.101562 7.546875 -7.457031 7.296875 -7.75 C 7.046875 -8.039062 6.734375 -8.265625 6.359375 -8.421875 C 5.992188 -8.578125 5.578125 -8.65625 5.109375 -8.65625 L 3.484375 -8.65625 L 3.484375 -1.875 L 5.109375 -1.875 C 5.578125 -1.875 5.992188 -1.953125 6.359375 -2.109375 C 6.734375 -2.265625 7.046875 -2.488281 7.296875 -2.78125 C 7.546875 -3.070312 7.738281 -3.425781 7.875 -3.84375 C 8.007812 -4.269531 8.078125 -4.75 8.078125 -5.28125 Z M 8.078125 -5.28125 "/></g></g></g><g fill="#0846a8" fill-opacity="1"><g transform="translate(178.813168, 279.434221)"><g><path d="M 3.484375 -8.65625 L 3.484375 -6.203125 L 6.796875 -6.203125 L 6.796875 -4.390625 L 3.484375 -4.390625 L 3.484375 -1.875 L 7.8125 -1.875 L 7.8125 0 L 1.015625 0 L 1.015625 -10.546875 L 7.8125 -10.546875 L 7.8125 -8.65625 Z M 3.484375 -8.65625 "/></g></g></g><g fill="#0846a8" fill-opacity="1"><g transform="translate(191.144886, 279.434221)"><g><path d="M 12.875 -10.546875 L 12.875 0 L 10.71875 0 L 10.71875 -6.0625 C 10.71875 -6.195312 10.71875 -6.347656 10.71875 -6.515625 C 10.726562 -6.679688 10.742188 -6.847656 10.765625 -7.015625 L 7.96875 -1.59375 C 7.875 -1.425781 7.753906 -1.296875 7.609375 -1.203125 C 7.460938 -1.117188 7.296875 -1.078125 7.109375 -1.078125 L 6.78125 -1.078125 C 6.59375 -1.078125 6.425781 -1.117188 6.28125 -1.203125 C 6.132812 -1.296875 6.015625 -1.425781 5.921875 -1.59375 L 3.125 -7.03125 C 3.132812 -6.851562 3.144531 -6.679688 3.15625 -6.515625 C 3.164062 -6.347656 3.171875 -6.195312 3.171875 -6.0625 L 3.171875 0 L 1.015625 0 L 1.015625 -10.546875 L 2.890625 -10.546875 C 2.992188 -10.546875 3.082031 -10.539062 3.15625 -10.53125 C 3.238281 -10.53125 3.3125 -10.515625 3.375 -10.484375 C 3.4375 -10.460938 3.492188 -10.425781 3.546875 -10.375 C 3.597656 -10.320312 3.648438 -10.253906 3.703125 -10.171875 L 6.40625 -4.8125 C 6.5 -4.632812 6.59375 -4.445312 6.6875 -4.25 C 6.78125 -4.050781 6.863281 -3.847656 6.9375 -3.640625 C 7.019531 -3.847656 7.101562 -4.050781 7.1875 -4.25 C 7.28125 -4.457031 7.378906 -4.65625 7.484375 -4.84375 L 10.1875 -10.171875 C 10.238281 -10.253906 10.289062 -10.320312 10.34375 -10.375 C 10.394531 -10.425781 10.453125 -10.460938 10.515625 -10.484375 C 10.578125 -10.515625 10.644531 -10.53125 10.71875 -10.53125 C 10.800781 -10.539062 10.894531 -10.546875 11 -10.546875 Z M 12.875 -10.546875 "/></g></g></g><g fill="#0846a8" fill-opacity="1"><g transform="translate(209.077456, 279.434221)"><g><path d="M 6.59375 -4.03125 L 5.609375 -6.921875 C 5.535156 -7.097656 5.457031 -7.3125 5.375 -7.5625 C 5.300781 -7.8125 5.222656 -8.082031 5.140625 -8.375 C 5.066406 -8.070312 4.988281 -7.796875 4.90625 -7.546875 C 4.820312 -7.296875 4.742188 -7.082031 4.671875 -6.90625 L 3.703125 -4.03125 Z M 10.46875 0 L 8.578125 0 C 8.367188 0 8.195312 -0.046875 8.0625 -0.140625 C 7.9375 -0.242188 7.835938 -0.375 7.765625 -0.53125 L 7.140625 -2.359375 L 3.140625 -2.359375 L 2.515625 -0.53125 C 2.460938 -0.394531 2.367188 -0.269531 2.234375 -0.15625 C 2.097656 -0.0507812 1.925781 0 1.71875 0 L -0.1875 0 L 3.890625 -10.546875 L 6.390625 -10.546875 Z M 10.46875 0 "/></g></g></g><g fill="#0846a8" fill-opacity="1"><g transform="translate(223.406374, 279.434221)"><g><path d="M 10.21875 -10.546875 L 10.21875 0 L 8.953125 0 C 8.765625 0 8.601562 -0.03125 8.46875 -0.09375 C 8.34375 -0.15625 8.21875 -0.257812 8.09375 -0.40625 L 3.125 -6.6875 C 3.144531 -6.5 3.15625 -6.316406 3.15625 -6.140625 C 3.164062 -5.960938 3.171875 -5.800781 3.171875 -5.65625 L 3.171875 0 L 1.015625 0 L 1.015625 -10.546875 L 2.3125 -10.546875 C 2.414062 -10.546875 2.503906 -10.539062 2.578125 -10.53125 C 2.648438 -10.519531 2.710938 -10.5 2.765625 -10.46875 C 2.828125 -10.445312 2.882812 -10.410156 2.9375 -10.359375 C 2.988281 -10.304688 3.050781 -10.242188 3.125 -10.171875 L 8.125 -3.828125 C 8.101562 -4.035156 8.085938 -4.234375 8.078125 -4.421875 C 8.066406 -4.609375 8.0625 -4.789062 8.0625 -4.96875 L 8.0625 -10.546875 Z M 10.21875 -10.546875 "/></g></g></g><g fill="#0846a8" fill-opacity="1"><g transform="translate(238.690484, 279.434221)"><g><path d="M 10.578125 -5.28125 C 10.578125 -4.507812 10.445312 -3.800781 10.1875 -3.15625 C 9.925781 -2.519531 9.554688 -1.960938 9.078125 -1.484375 C 8.597656 -1.015625 8.019531 -0.648438 7.34375 -0.390625 C 6.675781 -0.128906 5.929688 0 5.109375 0 L 1.015625 0 L 1.015625 -10.546875 L 5.109375 -10.546875 C 5.929688 -10.546875 6.675781 -10.410156 7.34375 -10.140625 C 8.019531 -9.878906 8.597656 -9.515625 9.078125 -9.046875 C 9.554688 -8.578125 9.925781 -8.019531 10.1875 -7.375 C 10.445312 -6.726562 10.578125 -6.03125 10.578125 -5.28125 Z M 8.078125 -5.28125 C 8.078125 -5.800781 8.007812 -6.269531 7.875 -6.6875 C 7.738281 -7.101562 7.546875 -7.457031 7.296875 -7.75 C 7.046875 -8.039062 6.734375 -8.265625 6.359375 -8.421875 C 5.992188 -8.578125 5.578125 -8.65625 5.109375 -8.65625 L 3.484375 -8.65625 L 3.484375 -1.875 L 5.109375 -1.875 C 5.578125 -1.875 5.992188 -1.953125 6.359375 -2.109375 C 6.734375 -2.265625 7.046875 -2.488281 7.296875 -2.78125 C 7.546875 -3.070312 7.738281 -3.425781 7.875 -3.84375 C 8.007812 -4.269531 8.078125 -4.75 8.078125 -5.28125 Z M 8.078125 -5.28125 "/></g></g></g></svg>