<svg xmlns="http://www.w3.org/2000/svg" xmlns:xlink="http://www.w3.org/1999/xlink" width="500" zoomAndPan="magnify" viewBox="0 0 375 374.999991" height="500" preserveAspectRatio="xMidYMid meet" version="1.0"><defs><g/><clipPath id="c4a075f54d"><path d="M 112.5 116 L 166 116 L 166 193 L 112.5 193 Z M 112.5 116 " clip-rule="nonzero"/></clipPath><clipPath id="9925184aca"><path d="M 209 116 L 262.5 116 L 262.5 193 L 209 193 Z M 209 116 " clip-rule="nonzero"/></clipPath><clipPath id="fa50505273"><path d="M 161 96.128906 L 213 96.128906 L 213 212.378906 L 161 212.378906 Z M 161 96.128906 " clip-rule="nonzero"/></clipPath><clipPath id="45d2c364be"><path d="M 208 44 L 235 44 L 235 81 L 208 81 Z M 208 44 " clip-rule="nonzero"/></clipPath><clipPath id="2619e3173d"><path d="M 199.972656 55.640625 L 233.429688 44.535156 L 244.535156 77.992188 L 211.078125 89.097656 Z M 199.972656 55.640625 " clip-rule="nonzero"/></clipPath><clipPath id="d14fc09862"><path d="M 199.972656 55.640625 L 233.429688 44.535156 L 244.535156 77.992188 L 211.078125 89.097656 Z M 199.972656 55.640625 " clip-rule="nonzero"/></clipPath><clipPath id="a3f5e442df"><path d="M 220 56 L 231 56 L 231 66 L 220 66 Z M 220 56 " clip-rule="nonzero"/></clipPath><clipPath id="8fa26ddd71"><path d="M 199.972656 55.640625 L 233.429688 44.535156 L 244.535156 77.992188 L 211.078125 89.097656 Z M 199.972656 55.640625 " clip-rule="nonzero"/></clipPath><clipPath id="bcf0c89368"><path d="M 199.972656 55.640625 L 233.429688 44.535156 L 244.535156 77.992188 L 211.078125 89.097656 Z M 199.972656 55.640625 " clip-rule="nonzero"/></clipPath><clipPath id="334ec9fc81"><path d="M 206 71 L 210 71 L 210 77 L 206 77 Z M 206 71 " clip-rule="nonzero"/></clipPath><clipPath id="400e938e09"><path d="M 199.972656 55.640625 L 233.429688 44.535156 L 244.535156 77.992188 L 211.078125 89.097656 Z M 199.972656 55.640625 " clip-rule="nonzero"/></clipPath><clipPath id="391a3964a9"><path d="M 199.972656 55.640625 L 233.429688 44.535156 L 244.535156 77.992188 L 211.078125 89.097656 Z M 199.972656 55.640625 " clip-rule="nonzero"/></clipPath><clipPath id="0cfe51ebd7"><path d="M 212 79 L 217 79 L 217 87 L 212 87 Z M 212 79 " clip-rule="nonzero"/></clipPath><clipPath id="accd9490c4"><path d="M 199.972656 55.640625 L 233.429688 44.535156 L 244.535156 77.992188 L 211.078125 89.097656 Z M 199.972656 55.640625 " clip-rule="nonzero"/></clipPath><clipPath id="db59ae96bf"><path d="M 199.972656 55.640625 L 233.429688 44.535156 L 244.535156 77.992188 L 211.078125 89.097656 Z M 199.972656 55.640625 " clip-rule="nonzero"/></clipPath><clipPath id="d29c5c6e42"><path d="M 209 75 L 213 75 L 213 82 L 209 82 Z M 209 75 " clip-rule="nonzero"/></clipPath><clipPath id="a199e82c6a"><path d="M 199.972656 55.640625 L 233.429688 44.535156 L 244.535156 77.992188 L 211.078125 89.097656 Z M 199.972656 55.640625 " clip-rule="nonzero"/></clipPath><clipPath id="e767f7e1f8"><path d="M 199.972656 55.640625 L 233.429688 44.535156 L 244.535156 77.992188 L 211.078125 89.097656 Z M 199.972656 55.640625 " clip-rule="nonzero"/></clipPath><clipPath id="9c81db1c3d"><path d="M 223 79 L 227 79 L 227 85 L 223 85 Z M 223 79 " clip-rule="nonzero"/></clipPath><clipPath id="21d33cf4d9"><path d="M 199.972656 55.640625 L 233.429688 44.535156 L 244.535156 77.992188 L 211.078125 89.097656 Z M 199.972656 55.640625 " clip-rule="nonzero"/></clipPath><clipPath id="a610f44a72"><path d="M 199.972656 55.640625 L 233.429688 44.535156 L 244.535156 77.992188 L 211.078125 89.097656 Z M 199.972656 55.640625 " clip-rule="nonzero"/></clipPath><clipPath id="db34f07b94"><path d="M 218 80 L 222 80 L 222 87 L 218 87 Z M 218 80 " clip-rule="nonzero"/></clipPath><clipPath id="85cbfb1b91"><path d="M 199.972656 55.640625 L 233.429688 44.535156 L 244.535156 77.992188 L 211.078125 89.097656 Z M 199.972656 55.640625 " clip-rule="nonzero"/></clipPath><clipPath id="340fb2d113"><path d="M 199.972656 55.640625 L 233.429688 44.535156 L 244.535156 77.992188 L 211.078125 89.097656 Z M 199.972656 55.640625 " clip-rule="nonzero"/></clipPath></defs><rect x="-37.5" width="450" fill="#ffffff" y="-37.499999" height="449.999989" fill-opacity="1"/><rect x="-37.5" width="450" fill="#0846a8" y="-37.499999" height="449.999989" fill-opacity="1"/><path fill="#f9fafd" d="M 159.824219 191.074219 C 158.996094 191.074219 158.179688 190.796875 157.527344 190.277344 L 115.578125 157.273438 C 114.675781 156.5625 114.160156 155.5 114.160156 154.355469 C 114.160156 153.210938 114.675781 152.144531 115.574219 151.429688 L 157.527344 118.433594 C 158.179688 117.914062 158.996094 117.636719 159.824219 117.636719 C 160.96875 117.636719 162.039062 118.148438 162.742188 119.054688 C 163.355469 119.832031 163.632812 120.804688 163.515625 121.789062 C 163.398438 122.773438 162.898438 123.652344 162.121094 124.269531 L 123.890625 154.355469 L 162.121094 184.4375 C 162.898438 185.054688 163.398438 185.933594 163.515625 186.917969 C 163.632812 187.902344 163.355469 188.871094 162.742188 189.65625 C 162.039062 190.554688 160.96875 191.074219 159.824219 191.074219 " fill-opacity="1" fill-rule="nonzero"/><g clip-path="url(#c4a075f54d)"><path fill="#ffffff" d="M 159.824219 116.054688 C 158.640625 116.054688 157.484375 116.453125 156.550781 117.1875 L 114.597656 150.191406 C 113.3125 151.210938 112.578125 152.722656 112.578125 154.355469 C 112.578125 155.988281 113.316406 157.507812 114.597656 158.519531 L 156.550781 191.523438 C 157.476562 192.25 158.640625 192.65625 159.824219 192.65625 C 161.464844 192.65625 162.980469 191.917969 163.988281 190.632812 C 164.867188 189.523438 165.253906 188.136719 165.089844 186.734375 C 164.917969 185.328125 164.214844 184.070312 163.101562 183.195312 L 126.445312 154.355469 L 163.101562 125.515625 C 164.214844 124.636719 164.917969 123.382812 165.089844 121.976562 C 165.253906 120.570312 164.867188 119.1875 163.988281 118.070312 C 162.980469 116.789062 161.457031 116.054688 159.824219 116.054688 Z M 159.824219 119.21875 C 160.457031 119.21875 161.082031 119.496094 161.5 120.027344 C 162.234375 120.957031 162.070312 122.300781 161.148438 123.027344 L 121.328125 154.355469 L 161.148438 185.683594 C 162.070312 186.410156 162.234375 187.75 161.5 188.675781 C 161.082031 189.214844 160.457031 189.492188 159.824219 189.492188 C 159.363281 189.492188 158.898438 189.347656 158.507812 189.035156 L 116.554688 156.03125 C 116.042969 155.628906 115.742188 155.007812 115.742188 154.355469 C 115.742188 153.695312 116.042969 153.082031 116.554688 152.679688 L 158.507812 119.671875 C 158.894531 119.363281 159.363281 119.21875 159.824219 119.21875 " fill-opacity="1" fill-rule="nonzero"/></g><path fill="#f9fafd" d="M 215.175781 191.074219 C 214.03125 191.074219 212.96875 190.554688 212.25 189.65625 C 210.984375 188.050781 211.265625 185.707031 212.878906 184.4375 L 251.117188 154.355469 L 212.878906 124.269531 C 211.265625 123.003906 210.984375 120.660156 212.25 119.054688 C 212.96875 118.148438 214.03125 117.636719 215.175781 117.636719 C 216.003906 117.636719 216.820312 117.914062 217.472656 118.433594 L 259.425781 151.429688 C 260.324219 152.144531 260.835938 153.210938 260.835938 154.355469 C 260.835938 155.5 260.324219 156.5625 259.421875 157.273438 L 217.472656 190.277344 C 216.820312 190.796875 216.003906 191.074219 215.175781 191.074219 " fill-opacity="1" fill-rule="nonzero"/><g clip-path="url(#9925184aca)"><path fill="#ffffff" d="M 215.175781 116.054688 C 213.542969 116.054688 212.023438 116.789062 211.011719 118.070312 C 209.203125 120.371094 209.601562 123.703125 211.898438 125.515625 L 248.554688 154.355469 L 211.898438 183.195312 C 209.601562 185 209.203125 188.339844 211.011719 190.632812 C 212.023438 191.917969 213.542969 192.65625 215.175781 192.65625 C 216.359375 192.65625 217.515625 192.25 218.449219 191.523438 L 260.402344 158.519531 C 261.6875 157.507812 262.417969 155.988281 262.417969 154.355469 C 262.417969 152.722656 261.6875 151.210938 260.40625 150.191406 L 218.453125 117.1875 C 217.523438 116.453125 216.359375 116.054688 215.175781 116.054688 Z M 215.175781 119.21875 C 215.636719 119.21875 216.105469 119.363281 216.492188 119.671875 L 258.445312 152.679688 C 258.957031 153.082031 259.253906 153.695312 259.253906 154.355469 C 259.253906 155.007812 258.957031 155.628906 258.445312 156.03125 L 216.492188 189.035156 C 216.105469 189.347656 215.636719 189.492188 215.175781 189.492188 C 214.542969 189.492188 213.917969 189.214844 213.5 188.675781 C 212.769531 187.75 212.929688 186.410156 213.851562 185.683594 L 253.671875 154.355469 L 213.851562 123.027344 C 212.929688 122.300781 212.769531 120.957031 213.5 120.027344 C 213.917969 119.496094 214.550781 119.21875 215.175781 119.21875 " fill-opacity="1" fill-rule="nonzero"/></g><path fill="#f9fafd" d="M 166.652344 210.992188 C 166.191406 210.992188 165.742188 210.902344 165.3125 210.738281 C 164.386719 210.378906 163.652344 209.679688 163.253906 208.777344 C 162.847656 207.863281 162.832031 206.859375 163.183594 205.933594 L 204.15625 100.09375 C 204.707031 98.675781 206.101562 97.71875 207.617188 97.71875 C 208.082031 97.71875 208.535156 97.808594 208.96875 97.972656 C 210.871094 98.710938 211.828125 100.871094 211.085938 102.78125 L 170.121094 208.617188 C 169.570312 210.035156 168.171875 210.992188 166.652344 210.992188 " fill-opacity="1" fill-rule="nonzero"/><g clip-path="url(#fa50505273)"><path fill="#ffffff" d="M 207.617188 96.136719 C 205.449219 96.136719 203.460938 97.503906 202.683594 99.523438 L 161.710938 205.359375 C 161.203125 206.679688 161.234375 208.117188 161.804688 209.414062 C 162.382812 210.707031 163.417969 211.707031 164.742188 212.210938 C 165.355469 212.453125 165.996094 212.574219 166.652344 212.574219 C 168.824219 212.574219 170.8125 211.210938 171.597656 209.1875 L 212.5625 103.351562 C 213.617188 100.625 212.257812 97.546875 209.53125 96.496094 C 208.921875 96.257812 208.277344 96.136719 207.617188 96.136719 Z M 207.617188 99.300781 C 207.878906 99.300781 208.136719 99.351562 208.390625 99.445312 C 209.492188 99.871094 210.035156 101.105469 209.613281 102.207031 L 168.640625 208.042969 C 168.316406 208.890625 167.507812 209.410156 166.652344 209.410156 C 166.394531 209.410156 166.132812 209.363281 165.882812 209.261719 C 164.78125 208.839844 164.234375 207.597656 164.664062 206.503906 L 205.632812 100.667969 C 205.960938 99.820312 206.765625 99.300781 207.617188 99.300781 " fill-opacity="1" fill-rule="nonzero"/></g><g clip-path="url(#45d2c364be)"><g clip-path="url(#2619e3173d)"><g clip-path="url(#d14fc09862)"><path fill="#ffffff" d="M 233.054688 44.683594 C 231.050781 45.347656 228.863281 46.554688 226.695312 48.179688 C 226.695312 48.183594 226.691406 48.183594 226.691406 48.183594 C 226.691406 48.183594 226.691406 48.1875 226.6875 48.1875 C 226.511719 48.316406 226.335938 48.449219 226.160156 48.585938 C 226.144531 48.597656 226.128906 48.613281 226.109375 48.628906 C 225.679688 48.96875 225.257812 49.324219 224.847656 49.683594 C 224.847656 49.683594 224.84375 49.6875 224.839844 49.6875 C 222.300781 51.914062 220.226562 54.441406 219.042969 56.800781 L 216.742188 61.390625 L 213.863281 62.347656 C 212.480469 62.804688 211.359375 63.777344 210.703125 65.082031 L 208.398438 69.679688 C 208.273438 69.929688 208.3125 70.230469 208.496094 70.4375 C 208.675781 70.644531 208.964844 70.71875 209.222656 70.632812 C 209.226562 70.632812 209.230469 70.628906 209.238281 70.628906 L 214.695312 68.667969 C 214.910156 70.199219 215.566406 71.644531 216.628906 72.789062 C 215.394531 75.332031 214.796875 78.34375 216.359375 79.128906 C 216.753906 79.324219 217.175781 79.328125 217.609375 79.183594 C 218.910156 78.753906 220.308594 76.996094 221.285156 75.113281 C 222.359375 75.226562 223.433594 75.117188 224.441406 74.78125 C 224.890625 74.632812 225.324219 74.4375 225.742188 74.207031 L 227.433594 79.753906 C 227.515625 80.023438 227.75 80.210938 228.03125 80.234375 C 228.125 80.242188 228.214844 80.230469 228.300781 80.203125 C 228.46875 80.148438 228.613281 80.027344 228.695312 79.863281 L 231.003906 75.261719 C 231.65625 73.957031 231.765625 72.476562 231.304688 71.09375 L 230.351562 68.214844 L 232.632812 63.65625 C 233.824219 61.285156 234.613281 58.09375 234.867188 54.703125 C 234.910156 54.136719 234.941406 53.566406 234.953125 52.992188 C 234.960938 52.78125 234.957031 52.570312 234.957031 52.359375 C 234.957031 52.351562 234.960938 52.347656 234.960938 52.339844 C 234.960938 52.332031 234.957031 52.324219 234.957031 52.316406 C 234.960938 49.597656 234.613281 47.113281 233.933594 45.105469 C 233.8125 44.75 233.410156 44.5625 233.054688 44.683594 Z M 214.621094 67.246094 L 210.378906 68.769531 L 211.921875 65.691406 C 212.414062 64.714844 213.253906 63.984375 214.292969 63.640625 L 215.875 63.117188 L 215.472656 63.921875 C 214.941406 64.980469 214.664062 66.117188 214.621094 67.246094 Z M 218.296875 70.136719 C 217.960938 70.546875 217.636719 71.007812 217.328125 71.511719 C 216.566406 70.554688 216.117188 69.386719 216.003906 68.167969 C 216.695312 68.96875 217.578125 69.652344 218.296875 70.136719 Z M 220.15625 74.328125 C 218.796875 77.042969 217.257812 78.050781 216.972656 77.910156 C 216.6875 77.765625 216.578125 75.929688 217.9375 73.214844 C 218.539062 72.015625 219.269531 70.980469 219.984375 70.296875 C 220.410156 69.898438 220.730469 69.71875 220.925781 69.65625 C 221.03125 69.621094 221.097656 69.617188 221.125 69.632812 C 221.199219 69.671875 221.375 70.050781 221.269531 70.941406 C 221.15625 71.925781 220.757812 73.128906 220.15625 74.328125 Z M 221.886719 73.796875 C 222.105469 73.25 222.28125 72.710938 222.410156 72.199219 C 223.238281 72.484375 224.320312 72.777344 225.382812 72.84375 C 224.335938 73.492188 223.117188 73.835938 221.886719 73.796875 Z M 230.007812 71.523438 C 230.355469 72.5625 230.273438 73.671875 229.78125 74.648438 L 228.242188 77.726562 L 226.925781 73.410156 C 227.804688 72.703125 228.550781 71.804688 229.082031 70.742188 L 229.484375 69.941406 L 230.011719 71.523438 Z M 231.414062 63.042969 L 227.863281 70.132812 C 227.707031 70.441406 227.527344 70.738281 227.328125 71.015625 C 227.328125 71.015625 227.328125 71.019531 227.324219 71.019531 C 226.699219 71.722656 224.851562 71.632812 222.644531 70.828125 C 222.757812 69.289062 222.226562 68.660156 221.734375 68.414062 C 221.246094 68.164062 220.421875 68.113281 219.253906 69.128906 C 217.402344 67.921875 216.222656 66.558594 216.257812 65.632812 C 216.371094 65.261719 216.511719 64.890625 216.691406 64.53125 L 217.832031 62.257812 C 217.832031 62.253906 217.832031 62.253906 217.835938 62.253906 L 220.261719 57.410156 C 221.257812 55.425781 222.945312 53.300781 225.03125 51.355469 C 225.710938 52.539062 227.007812 53.675781 228.691406 54.523438 C 230.378906 55.367188 232.0625 55.722656 233.417969 55.558594 C 233.113281 58.40625 232.417969 61.046875 231.414062 63.042969 Z M 233.535156 54.164062 C 232.441406 54.390625 230.847656 54.074219 229.304688 53.300781 C 227.761719 52.527344 226.546875 51.4375 226.074219 50.425781 C 226.347656 50.195312 226.625 49.96875 226.90625 49.742188 C 226.910156 49.753906 226.914062 49.761719 226.917969 49.769531 C 227.101562 50.433594 228.070312 51.53125 229.761719 52.382812 C 231.460938 53.234375 232.925781 53.347656 233.570312 53.09375 C 233.574219 53.089844 233.582031 53.089844 233.585938 53.089844 C 233.574219 53.449219 233.558594 53.808594 233.535156 54.164062 Z M 233.578125 51.683594 C 233.40625 51.71875 233.234375 51.757812 233.066406 51.824219 C 232.863281 51.921875 231.8125 51.882812 230.367188 51.160156 C 228.9375 50.441406 228.300781 49.621094 228.234375 49.410156 C 228.1875 49.234375 228.117188 49.066406 228.039062 48.902344 C 229.667969 47.734375 231.324219 46.796875 232.84375 46.207031 C 233.289062 47.777344 233.53125 49.671875 233.578125 51.683594 Z M 233.578125 51.683594 " fill-opacity="1" fill-rule="nonzero"/></g></g></g><g clip-path="url(#a3f5e442df)"><g clip-path="url(#8fa26ddd71)"><g clip-path="url(#bcf0c89368)"><path fill="#ffffff" d="M 223.964844 56.785156 C 222.789062 57.175781 221.839844 58 221.285156 59.105469 C 220.730469 60.207031 220.640625 61.464844 221.03125 62.636719 C 221.417969 63.8125 222.242188 64.761719 223.347656 65.316406 C 224.453125 65.871094 225.707031 65.960938 226.882812 65.570312 C 228.054688 65.183594 229.007812 64.359375 229.558594 63.253906 C 230.113281 62.148438 230.207031 60.894531 229.816406 59.71875 C 229.425781 58.546875 228.601562 57.59375 227.496094 57.042969 C 226.394531 56.488281 225.136719 56.394531 223.964844 56.785156 Z M 228.339844 62.644531 C 227.949219 63.421875 227.28125 64.003906 226.453125 64.277344 C 225.625 64.550781 224.738281 64.488281 223.960938 64.097656 C 223.179688 63.707031 222.601562 63.035156 222.324219 62.207031 C 222.050781 61.378906 222.113281 60.496094 222.503906 59.714844 C 222.894531 58.9375 223.566406 58.355469 224.394531 58.082031 C 225.222656 57.804688 226.105469 57.871094 226.886719 58.261719 C 227.667969 58.652344 228.246094 59.324219 228.519531 60.152344 C 228.796875 60.980469 228.730469 61.863281 228.339844 62.644531 Z M 228.339844 62.644531 " fill-opacity="1" fill-rule="nonzero"/></g></g></g><g clip-path="url(#334ec9fc81)"><g clip-path="url(#400e938e09)"><g clip-path="url(#391a3964a9)"><path fill="#ffffff" d="M 208.007812 75.953125 L 209.816406 72.347656 C 209.984375 72.007812 209.851562 71.601562 209.511719 71.429688 C 209.175781 71.261719 208.765625 71.398438 208.597656 71.734375 L 206.789062 75.339844 C 206.621094 75.675781 206.757812 76.085938 207.09375 76.253906 C 207.261719 76.339844 207.449219 76.347656 207.613281 76.292969 C 207.78125 76.238281 207.925781 76.121094 208.007812 75.953125 Z M 208.007812 75.953125 " fill-opacity="1" fill-rule="nonzero"/></g></g></g><g clip-path="url(#0cfe51ebd7)"><g clip-path="url(#accd9490c4)"><g clip-path="url(#db59ae96bf)"><path fill="#ffffff" d="M 215.992188 79.835938 C 215.652344 79.667969 215.246094 79.800781 215.074219 80.140625 L 212.277344 85.71875 C 212.109375 86.054688 212.242188 86.464844 212.582031 86.632812 C 212.75 86.71875 212.9375 86.726562 213.101562 86.671875 C 213.265625 86.617188 213.414062 86.496094 213.496094 86.328125 L 216.292969 80.75 C 216.464844 80.414062 216.328125 80.003906 215.992188 79.835938 Z M 215.992188 79.835938 " fill-opacity="1" fill-rule="nonzero"/></g></g></g><g clip-path="url(#d29c5c6e42)"><g clip-path="url(#a199e82c6a)"><g clip-path="url(#e767f7e1f8)"><path fill="#ffffff" d="M 212.503906 75.667969 C 212.167969 75.5 211.757812 75.636719 211.589844 75.972656 L 209.222656 80.695312 C 209.054688 81.03125 209.1875 81.441406 209.527344 81.609375 C 209.695312 81.695312 209.878906 81.703125 210.046875 81.648438 C 210.210938 81.59375 210.355469 81.476562 210.441406 81.308594 L 212.808594 76.585938 C 212.980469 76.25 212.84375 75.839844 212.503906 75.667969 Z M 212.503906 75.667969 " fill-opacity="1" fill-rule="nonzero"/></g></g></g><g clip-path="url(#9c81db1c3d)"><g clip-path="url(#21d33cf4d9)"><g clip-path="url(#a610f44a72)"><path fill="#ffffff" d="M 225.683594 80.304688 L 223.878906 83.910156 C 223.707031 84.246094 223.84375 84.65625 224.179688 84.824219 C 224.347656 84.910156 224.535156 84.917969 224.703125 84.863281 C 224.867188 84.808594 225.011719 84.691406 225.097656 84.523438 L 226.90625 80.917969 C 227.074219 80.578125 226.9375 80.171875 226.601562 80 C 226.261719 79.832031 225.855469 79.96875 225.683594 80.304688 Z M 225.683594 80.304688 " fill-opacity="1" fill-rule="nonzero"/></g></g></g><g clip-path="url(#db34f07b94)"><g clip-path="url(#85cbfb1b91)"><g clip-path="url(#340fb2d113)"><path fill="#ffffff" d="M 220.5 80.441406 L 218.128906 85.164062 C 217.960938 85.5 218.097656 85.910156 218.433594 86.078125 C 218.601562 86.164062 218.789062 86.171875 218.957031 86.117188 C 219.121094 86.0625 219.265625 85.941406 219.351562 85.773438 L 221.71875 81.054688 C 221.886719 80.714844 221.75 80.308594 221.414062 80.136719 C 221.078125 79.96875 220.667969 80.105469 220.5 80.441406 Z M 220.5 80.441406 " fill-opacity="1" fill-rule="nonzero"/></g></g></g><g fill="#ffffff" fill-opacity="1"><g transform="translate(49.57851, 238.669408)"><g><path d="M 1.621094 0 L 7.066406 0 C 11.605469 0 15.316406 -3.683594 15.316406 -8.25 C 15.316406 -12.8125 11.605469 -16.5 7.066406 -16.5 L 1.621094 -16.5 Z M 5.25 -3.21875 L 5.25 -13.28125 L 7.039062 -13.28125 C 9.652344 -13.28125 11.6875 -11.109375 11.6875 -8.25 C 11.6875 -5.390625 9.652344 -3.21875 7.039062 -3.21875 Z M 5.25 -3.21875 "/></g></g></g><g fill="#ffffff" fill-opacity="1"><g transform="translate(66.878643, 238.669408)"><g><path d="M 11.6875 -13.308594 L 11.6875 -16.5 L 1.761719 -16.5 L 1.761719 0 L 11.6875 0 L 11.6875 -3.191406 L 5.390625 -3.191406 L 5.390625 -6.652344 L 10.777344 -6.652344 L 10.777344 -9.84375 L 5.390625 -9.84375 L 5.390625 -13.308594 Z M 11.6875 -13.308594 "/></g></g></g><g fill="#ffffff" fill-opacity="1"><g transform="translate(80.659397, 238.669408)"><g><path d="M 11.546875 -16.5 L 7.617188 -4.703125 L 3.683594 -16.5 L -0.359375 -16.5 L 5.582031 0 L 9.652344 0 L 15.589844 -16.5 Z M 11.546875 -16.5 "/></g></g></g><g fill="#ffffff" fill-opacity="1"><g transform="translate(96.85973, 238.669408)"><g><path d="M 11.6875 -13.308594 L 11.6875 -16.5 L 1.761719 -16.5 L 1.761719 0 L 11.6875 0 L 11.6875 -3.191406 L 5.390625 -3.191406 L 5.390625 -6.652344 L 10.777344 -6.652344 L 10.777344 -9.84375 L 5.390625 -9.84375 L 5.390625 -13.308594 Z M 11.6875 -13.308594 "/></g></g></g><g fill="#ffffff" fill-opacity="1"><g transform="translate(110.640484, 238.669408)"><g><path d="M 5.25 -3.21875 L 5.25 -16.5 L 1.621094 -16.5 L 1.621094 0 L 10.722656 0 L 10.722656 -3.21875 Z M 5.25 -3.21875 "/></g></g></g><g fill="#ffffff" fill-opacity="1"><g transform="translate(122.386607, 238.669408)"><g><path d="M 9.488281 0.21875 C 14.1875 0.21875 17.957031 -3.574219 17.957031 -8.25 C 17.957031 -12.921875 14.1875 -16.71875 9.488281 -16.71875 C 4.8125 -16.71875 1.015625 -12.921875 1.015625 -8.25 C 1.015625 -3.574219 4.8125 0.21875 9.488281 0.21875 Z M 9.488281 -3.328125 C 6.710938 -3.328125 4.59375 -5.472656 4.59375 -8.25 C 4.59375 -11.027344 6.710938 -13.171875 9.488281 -13.171875 C 12.292969 -13.171875 14.410156 -11.027344 14.410156 -8.25 C 14.410156 -5.472656 12.292969 -3.328125 9.488281 -3.328125 Z M 9.488281 -3.328125 "/></g></g></g><g fill="#ffffff" fill-opacity="1"><g transform="translate(142.353777, 238.669408)"><g><path d="M 8.632812 -16.5 L 1.621094 -16.5 L 1.621094 0 L 5.25 0 L 5.25 -6.683594 L 8.632812 -6.683594 C 11.410156 -6.683594 13.554688 -8.742188 13.554688 -11.519531 C 13.554688 -14.269531 11.410156 -16.5 8.632812 -16.5 Z M 8.054688 -9.679688 L 5.25 -9.679688 L 5.25 -13.308594 L 8.054688 -13.308594 C 9.210938 -13.308594 10.089844 -12.566406 10.089844 -11.492188 C 10.089844 -10.394531 9.210938 -9.679688 8.054688 -9.679688 Z M 8.054688 -9.679688 "/></g></g></g><g fill="#ffffff" fill-opacity="1"><g transform="translate(156.986889, 238.669408)"><g><path d="M 11.6875 -13.308594 L 11.6875 -16.5 L 1.761719 -16.5 L 1.761719 0 L 11.6875 0 L 11.6875 -3.191406 L 5.390625 -3.191406 L 5.390625 -6.652344 L 10.777344 -6.652344 L 10.777344 -9.84375 L 5.390625 -9.84375 L 5.390625 -13.308594 Z M 11.6875 -13.308594 "/></g></g></g><g fill="#ffffff" fill-opacity="1"><g transform="translate(170.767646, 238.669408)"><g><path d="M 10.230469 -6.792969 C 12.179688 -7.371094 13.554688 -9.183594 13.554688 -11.4375 C 13.554688 -14.242188 11.464844 -16.5 8.632812 -16.5 L 1.621094 -16.5 L 1.621094 0 L 5.25 0 L 5.25 -6.378906 L 6.710938 -6.378906 L 10.777344 0 L 14.847656 0 Z M 8.085938 -9.375 L 5.25 -9.375 L 5.25 -13.28125 L 8.085938 -13.28125 C 9.238281 -13.28125 10.089844 -12.457031 10.089844 -11.328125 C 10.089844 -10.175781 9.238281 -9.375 8.085938 -9.375 Z M 8.085938 -9.375 "/></g></g></g><g fill="#ffffff" fill-opacity="1"><g transform="translate(186.44557, 238.669408)"><g/></g></g><g fill="#ffffff" fill-opacity="1"><g transform="translate(194.012426, 238.669408)"><g><path d="M 8.632812 -16.5 L 1.621094 -16.5 L 1.621094 0 L 5.25 0 L 5.25 -6.683594 L 8.632812 -6.683594 C 11.410156 -6.683594 13.554688 -8.742188 13.554688 -11.519531 C 13.554688 -14.269531 11.410156 -16.5 8.632812 -16.5 Z M 8.054688 -9.679688 L 5.25 -9.679688 L 5.25 -13.308594 L 8.054688 -13.308594 C 9.210938 -13.308594 10.089844 -12.566406 10.089844 -11.492188 C 10.089844 -10.394531 9.210938 -9.679688 8.054688 -9.679688 Z M 8.054688 -9.679688 "/></g></g></g><g fill="#ffffff" fill-opacity="1"><g transform="translate(208.645538, 238.669408)"><g><path d="M 10.230469 -6.792969 C 12.179688 -7.371094 13.554688 -9.183594 13.554688 -11.4375 C 13.554688 -14.242188 11.464844 -16.5 8.632812 -16.5 L 1.621094 -16.5 L 1.621094 0 L 5.25 0 L 5.25 -6.378906 L 6.710938 -6.378906 L 10.777344 0 L 14.847656 0 Z M 8.085938 -9.375 L 5.25 -9.375 L 5.25 -13.28125 L 8.085938 -13.28125 C 9.238281 -13.28125 10.089844 -12.457031 10.089844 -11.328125 C 10.089844 -10.175781 9.238281 -9.375 8.085938 -9.375 Z M 8.085938 -9.375 "/></g></g></g><g fill="#ffffff" fill-opacity="1"><g transform="translate(224.323462, 238.669408)"><g><path d="M 11.714844 0 L 15.589844 0 L 9.652344 -16.5 L 5.582031 -16.5 L -0.359375 0 L 3.519531 0 L 4.535156 -3.105469 L 10.695312 -3.105469 Z M 5.5 -6.132812 L 7.617188 -12.675781 L 9.734375 -6.132812 Z M 5.5 -6.132812 "/></g></g></g><g fill="#ffffff" fill-opacity="1"><g transform="translate(240.523798, 238.669408)"><g><path d="M 9.488281 0.21875 C 12.757812 0.21875 15.589844 -1.621094 16.992188 -4.316406 L 13.859375 -5.9375 C 13.0625 -4.371094 11.4375 -3.328125 9.488281 -3.328125 C 6.710938 -3.328125 4.59375 -5.472656 4.59375 -8.25 C 4.59375 -11.027344 6.710938 -13.171875 9.488281 -13.171875 C 11.4375 -13.171875 13.0625 -12.125 13.859375 -10.558594 L 16.992188 -12.179688 C 15.589844 -14.875 12.757812 -16.71875 9.488281 -16.71875 C 4.8125 -16.71875 1.015625 -12.921875 1.015625 -8.25 C 1.015625 -3.574219 4.8125 0.21875 9.488281 0.21875 Z M 9.488281 0.21875 "/></g></g></g><g fill="#ffffff" fill-opacity="1"><g transform="translate(259.19869, 238.669408)"><g><path d="M 11.796875 -16.5 L -0.136719 -16.5 L -0.136719 -13.28125 L 4.042969 -13.28125 L 4.042969 0 L 7.644531 0 L 7.644531 -13.28125 L 11.796875 -13.28125 Z M 11.796875 -16.5 "/></g></g></g><g fill="#ffffff" fill-opacity="1"><g transform="translate(271.824658, 238.669408)"><g><path d="M 1.761719 0 L 5.390625 0 L 5.390625 -16.5 L 1.761719 -16.5 Z M 1.761719 0 "/></g></g></g><g fill="#ffffff" fill-opacity="1"><g transform="translate(279.913913, 238.669408)"><g><path d="M 9.488281 0.21875 C 12.757812 0.21875 15.589844 -1.621094 16.992188 -4.316406 L 13.859375 -5.9375 C 13.0625 -4.371094 11.4375 -3.328125 9.488281 -3.328125 C 6.710938 -3.328125 4.59375 -5.472656 4.59375 -8.25 C 4.59375 -11.027344 6.710938 -13.171875 9.488281 -13.171875 C 11.4375 -13.171875 13.0625 -12.125 13.859375 -10.558594 L 16.992188 -12.179688 C 15.589844 -14.875 12.757812 -16.71875 9.488281 -16.71875 C 4.8125 -16.71875 1.015625 -12.921875 1.015625 -8.25 C 1.015625 -3.574219 4.8125 0.21875 9.488281 0.21875 Z M 9.488281 0.21875 "/></g></g></g><g fill="#ffffff" fill-opacity="1"><g transform="translate(298.588793, 238.669408)"><g><path d="M 11.6875 -13.308594 L 11.6875 -16.5 L 1.761719 -16.5 L 1.761719 0 L 11.6875 0 L 11.6875 -3.191406 L 5.390625 -3.191406 L 5.390625 -6.652344 L 10.777344 -6.652344 L 10.777344 -9.84375 L 5.390625 -9.84375 L 5.390625 -13.308594 Z M 11.6875 -13.308594 "/></g></g></g><g fill="#ffffff" fill-opacity="1"><g transform="translate(312.369539, 238.669408)"><g><path d="M 6.710938 0.21875 C 9.789062 0.21875 12.402344 -1.59375 12.402344 -4.675781 C 12.402344 -10.777344 4.8125 -9.265625 4.8125 -12.125 C 4.8125 -13.0625 5.527344 -13.5 6.40625 -13.5 C 7.339844 -13.5 8.277344 -12.980469 9.101562 -12.070312 L 11.519531 -14.382812 C 10.3125 -15.785156 8.46875 -16.71875 6.433594 -16.71875 C 3.820312 -16.71875 1.15625 -15.152344 1.15625 -11.851562 C 1.15625 -6.242188 8.773438 -7.589844 8.773438 -4.703125 C 8.773438 -3.792969 8 -3.191406 6.738281 -3.191406 C 5.222656 -3.191406 4.042969 -4.042969 3.4375 -5.335938 L 0.441406 -3.464844 C 1.511719 -1.402344 3.820312 0.21875 6.710938 0.21875 Z M 6.710938 0.21875 "/></g></g></g><g fill="#ffffff" fill-opacity="1"><g transform="translate(151.345754, 259.286467)"><g><path d="M 4.738281 -4.109375 C 5.925781 -4.273438 6.824219 -5.265625 6.824219 -6.480469 C 6.824219 -7.890625 5.699219 -9 4.320312 -9 L 1.09375 -9 L 1.09375 0 L 2.054688 0 L 2.054688 -4.066406 L 3.75 -4.066406 L 6.300781 0 L 7.394531 0 Z M 2.054688 -4.980469 L 2.054688 -8.039062 L 4.261719 -8.039062 C 5.160156 -8.039062 5.863281 -7.410156 5.863281 -6.511719 C 5.863281 -5.59375 5.175781 -4.980469 4.261719 -4.980469 Z M 2.054688 -4.980469 "/></g></g></g><g fill="#ffffff" fill-opacity="1"><g transform="translate(162.895823, 259.286467)"><g><path d="M 6.089844 -8.070312 L 6.089844 -9 L 1.171875 -9 L 1.171875 0 L 6.089844 0 L 6.089844 -0.929688 L 2.128906 -0.929688 L 2.128906 -4.035156 L 5.578125 -4.035156 L 5.578125 -4.964844 L 2.128906 -4.964844 L 2.128906 -8.070312 Z M 6.089844 -8.070312 "/></g></g></g><g fill="#ffffff" fill-opacity="1"><g transform="translate(173.905891, 259.286467)"><g><path d="M 2.054688 -0.960938 L 2.054688 -9 L 1.09375 -9 L 1.09375 0 L 5.398438 0 L 5.398438 -0.960938 Z M 2.054688 -0.960938 "/></g></g></g><g fill="#ffffff" fill-opacity="1"><g transform="translate(183.460958, 259.286467)"><g><path d="M 6.089844 -8.070312 L 6.089844 -9 L 1.171875 -9 L 1.171875 0 L 6.089844 0 L 6.089844 -0.929688 L 2.128906 -0.929688 L 2.128906 -4.035156 L 5.578125 -4.035156 L 5.578125 -4.964844 L 2.128906 -4.964844 L 2.128906 -8.070312 Z M 6.089844 -8.070312 "/></g></g></g><g fill="#ffffff" fill-opacity="1"><g transform="translate(194.471026, 259.286467)"><g><path d="M 6.523438 0 L 7.574219 0 L 4.320312 -9 L 3.253906 -9 L 0 0 L 1.050781 0 L 1.785156 -2.101562 L 5.789062 -2.101562 Z M 2.101562 -3.015625 L 3.796875 -7.859375 L 5.476562 -3.015625 Z M 2.101562 -3.015625 "/></g></g></g><g fill="#ffffff" fill-opacity="1"><g transform="translate(206.066093, 259.286467)"><g><path d="M 3.359375 0.121094 C 4.890625 0.121094 6.136719 -0.796875 6.136719 -2.371094 C 6.136719 -5.429688 1.753906 -4.679688 1.753906 -6.824219 C 1.753906 -7.726562 2.488281 -8.160156 3.328125 -8.160156 C 4.019531 -8.160156 4.589844 -7.875 4.949219 -7.363281 L 5.699219 -7.996094 C 5.203125 -8.625 4.335938 -9.121094 3.300781 -9.121094 C 1.921875 -9.121094 0.796875 -8.21875 0.796875 -6.75 C 0.796875 -3.855469 5.175781 -4.574219 5.175781 -2.339844 C 5.175781 -1.378906 4.378906 -0.839844 3.375 -0.839844 C 2.355469 -0.839844 1.621094 -1.394531 1.304688 -2.21875 L 0.433594 -1.710938 C 0.898438 -0.601562 2.023438 0.121094 3.359375 0.121094 Z M 3.359375 0.121094 "/></g></g></g><g fill="#ffffff" fill-opacity="1"><g transform="translate(216.656163, 259.286467)"><g><path d="M 6.089844 -8.070312 L 6.089844 -9 L 1.171875 -9 L 1.171875 0 L 6.089844 0 L 6.089844 -0.929688 L 2.128906 -0.929688 L 2.128906 -4.035156 L 5.578125 -4.035156 L 5.578125 -4.964844 L 2.128906 -4.964844 L 2.128906 -8.070312 Z M 6.089844 -8.070312 "/></g></g></g><g fill="#ffffff" fill-opacity="1"><g transform="translate(124.673881, 275.786466)"><g><path d="M 6.089844 -8.070312 L 6.089844 -9 L 1.171875 -9 L 1.171875 0 L 6.089844 0 L 6.089844 -0.929688 L 2.128906 -0.929688 L 2.128906 -4.035156 L 5.578125 -4.035156 L 5.578125 -4.964844 L 2.128906 -4.964844 L 2.128906 -8.070312 Z M 6.089844 -8.070312 "/></g></g></g><g fill="#ffffff" fill-opacity="1"><g transform="translate(135.683949, 275.786466)"><g><path d="M 7.558594 -9 L 7.558594 -1.605469 L 1.996094 -9 L 1.09375 -9 L 1.09375 0 L 2.054688 0 L 2.054688 -7.394531 L 7.605469 0 L 8.503906 0 L 8.503906 -9 Z M 7.558594 -9 "/></g></g></g><g fill="#ffffff" fill-opacity="1"><g transform="translate(149.304014, 275.786466)"><g><path d="M 5.386719 -4.769531 L 5.386719 -3.871094 L 9 -3.871094 C 8.714844 -2.128906 7.214844 -0.839844 5.398438 -0.839844 C 3.375 -0.839844 1.738281 -2.460938 1.738281 -4.5 C 1.738281 -6.539062 3.375 -8.160156 5.398438 -8.160156 C 6.765625 -8.160156 7.964844 -7.425781 8.578125 -6.316406 L 9.40625 -6.78125 C 8.625 -8.175781 7.125 -9.121094 5.398438 -9.121094 C 2.835938 -9.121094 0.78125 -7.050781 0.78125 -4.5 C 0.78125 -1.949219 2.835938 0.121094 5.398438 0.121094 C 7.949219 0.121094 10.019531 -1.949219 10.019531 -4.5 L 10.019531 -4.769531 Z M 5.386719 -4.769531 "/></g></g></g><g fill="#ffffff" fill-opacity="1"><g transform="translate(164.10908, 275.786466)"><g><path d="M 1.171875 0 L 2.128906 0 L 2.128906 -9 L 1.171875 -9 Z M 1.171875 0 "/></g></g></g><g fill="#ffffff" fill-opacity="1"><g transform="translate(171.414146, 275.786466)"><g><path d="M 7.558594 -9 L 7.558594 -1.605469 L 1.996094 -9 L 1.09375 -9 L 1.09375 0 L 2.054688 0 L 2.054688 -7.394531 L 7.605469 0 L 8.503906 0 L 8.503906 -9 Z M 7.558594 -9 "/></g></g></g><g fill="#ffffff" fill-opacity="1"><g transform="translate(185.034212, 275.786466)"><g><path d="M 6.089844 -8.070312 L 6.089844 -9 L 1.171875 -9 L 1.171875 0 L 6.089844 0 L 6.089844 -0.929688 L 2.128906 -0.929688 L 2.128906 -4.035156 L 5.578125 -4.035156 L 5.578125 -4.964844 L 2.128906 -4.964844 L 2.128906 -8.070312 Z M 6.089844 -8.070312 "/></g></g></g><g fill="#ffffff" fill-opacity="1"><g transform="translate(196.04428, 275.786466)"><g><path d="M 6.089844 -8.070312 L 6.089844 -9 L 1.171875 -9 L 1.171875 0 L 6.089844 0 L 6.089844 -0.929688 L 2.128906 -0.929688 L 2.128906 -4.035156 L 5.578125 -4.035156 L 5.578125 -4.964844 L 2.128906 -4.964844 L 2.128906 -8.070312 Z M 6.089844 -8.070312 "/></g></g></g><g fill="#ffffff" fill-opacity="1"><g transform="translate(207.054348, 275.786466)"><g><path d="M 4.738281 -4.109375 C 5.925781 -4.273438 6.824219 -5.265625 6.824219 -6.480469 C 6.824219 -7.890625 5.699219 -9 4.320312 -9 L 1.09375 -9 L 1.09375 0 L 2.054688 0 L 2.054688 -4.066406 L 3.75 -4.066406 L 6.300781 0 L 7.394531 0 Z M 2.054688 -4.980469 L 2.054688 -8.039062 L 4.261719 -8.039062 C 5.160156 -8.039062 5.863281 -7.410156 5.863281 -6.511719 C 5.863281 -5.59375 5.175781 -4.980469 4.261719 -4.980469 Z M 2.054688 -4.980469 "/></g></g></g><g fill="#ffffff" fill-opacity="1"><g transform="translate(218.604417, 275.786466)"><g><path d="M 1.171875 0 L 2.128906 0 L 2.128906 -9 L 1.171875 -9 Z M 1.171875 0 "/></g></g></g><g fill="#ffffff" fill-opacity="1"><g transform="translate(225.909478, 275.786466)"><g><path d="M 7.558594 -9 L 7.558594 -1.605469 L 1.996094 -9 L 1.09375 -9 L 1.09375 0 L 2.054688 0 L 2.054688 -7.394531 L 7.605469 0 L 8.503906 0 L 8.503906 -9 Z M 7.558594 -9 "/></g></g></g><g fill="#ffffff" fill-opacity="1"><g transform="translate(239.529548, 275.786466)"><g><path d="M 5.386719 -4.769531 L 5.386719 -3.871094 L 9 -3.871094 C 8.714844 -2.128906 7.214844 -0.839844 5.398438 -0.839844 C 3.375 -0.839844 1.738281 -2.460938 1.738281 -4.5 C 1.738281 -6.539062 3.375 -8.160156 5.398438 -8.160156 C 6.765625 -8.160156 7.964844 -7.425781 8.578125 -6.316406 L 9.40625 -6.78125 C 8.625 -8.175781 7.125 -9.121094 5.398438 -9.121094 C 2.835938 -9.121094 0.78125 -7.050781 0.78125 -4.5 C 0.78125 -1.949219 2.835938 0.121094 5.398438 0.121094 C 7.949219 0.121094 10.019531 -1.949219 10.019531 -4.5 L 10.019531 -4.769531 Z M 5.386719 -4.769531 "/></g></g></g></svg>